<?xml version="1.0" encoding="utf-8"?>
<!-- Generator: Adobe Illustrator 13.0.0, SVG Export Plug-In . SVG Version: 6.00 Build 14948)  -->
<!DOCTYPE svg PUBLIC "-//W3C//DTD SVG 1.1//EN" "http://www.w3.org/Graphics/SVG/1.1/DTD/svg11.dtd">
<svg version="1.1" id="Layer_1" xmlns="http://www.w3.org/2000/svg" xmlns:xlink="http://www.w3.org/1999/xlink" x="0px" y="0px"
	 width="16.197px" height="16.199px" viewBox="0 0 16.197 16.199" style="enable-background:new 0 0 16.197 16.199;"
	 xml:space="preserve">
<style type="text/css">
<![CDATA[
	.st0{fill:#21409A;}
]]>
</style>
<path class="st0" d="M8.502,15.86c0.429-0.461,0.429-1.176,0-1.637L3.561,9.046H15.09c0.614-0.004,1.109-0.506,1.105-1.121
	c-0.004-0.609-0.496-1.102-1.105-1.106H3.878l4.625-4.844c0.429-0.461,0.429-1.176,0-1.637C8.1-0.092,7.423-0.115,6.992,0.289
	C6.975,0.304,6.957,0.322,6.941,0.339L0.314,7.281c-0.429,0.461-0.429,1.176,0,1.637l6.627,6.942c0.403,0.431,1.08,0.453,1.512,0.05
	C8.469,15.893,8.486,15.876,8.502,15.86z"/>
</svg>
