<svg xmlns="http://www.w3.org/2000/svg" width="29.853" height="29.853" viewBox="0 0 29.853 29.853"><defs><style>.a{fill:#ffffff;}</style></defs><path class="a" d="M-59.666,140.607V170.46h29.853V140.607Zm11.144,21.562h-2.91v-9.351h2.91Zm-1.454-10.627a1.687,1.687,0,0,1-1.687-1.687,1.685,1.685,0,0,1,1.687-1.684,1.686,1.686,0,0,1,1.686,1.684A1.687,1.687,0,0,1-49.977,151.542Zm12.342,10.627h-2.9v-4.546c0-1.086-.02-2.48-1.51-2.48-1.513,0-1.744,1.181-1.744,2.4v4.625h-2.9v-9.351h2.787V154.1h.038a3.057,3.057,0,0,1,2.752-1.51c2.943,0,3.485,1.936,3.485,4.454Z" transform="translate(59.666 -140.607)"/></svg>