<svg xmlns="http://www.w3.org/2000/svg" width="54.243" height="51.308" viewBox="0 0 54.243 51.308"><defs><style>.a{fill:#233e99;}</style></defs><g transform="translate(-63.637 -219.469)"><path class="a" d="M90.758,250.125a10.322,10.322,0,0,0-6.5,18.347,1.007,1.007,0,0,0,.144.115,10.305,10.305,0,0,0,12.7,0,1.066,1.066,0,0,0,.144-.115,10.322,10.322,0,0,0-6.5-18.347Zm0,18.533a8.155,8.155,0,0,1-4.533-1.37,4.907,4.907,0,0,1,9.067,0,8.158,8.158,0,0,1-4.534,1.37Zm-1.866-8.207a1.688,1.688,0,1,1,1.688,1.688,1.69,1.69,0,0,1-1.688-1.688Zm8.058,5.378a6.958,6.958,0,0,0-3.335-3.084,3.806,3.806,0,1,0-5.975.122,6.958,6.958,0,0,0-3.074,2.962,8.207,8.207,0,1,1,12.384,0Zm0,0"/><path class="a" d="M73.963,219.469a10.322,10.322,0,0,0-6.495,18.347,1.142,1.142,0,0,0,.143.115,10.307,10.307,0,0,0,12.7,0,1.074,1.074,0,0,0,.143-.115,10.322,10.322,0,0,0-6.5-18.347Zm0,18.533a8.155,8.155,0,0,1-4.533-1.37,4.907,4.907,0,0,1,9.067,0A8.159,8.159,0,0,1,73.963,238ZM72.1,229.795a1.688,1.688,0,1,1,1.689,1.688,1.69,1.69,0,0,1-1.689-1.688Zm8.059,5.378a6.958,6.958,0,0,0-3.335-3.084,3.806,3.806,0,1,0-5.975.122,6.953,6.953,0,0,0-3.074,2.962,8.207,8.207,0,1,1,12.384,0Zm0,0"/><path class="a" d="M107.553,219.469a10.322,10.322,0,0,0-6.494,18.347,1.074,1.074,0,0,0,.143.115,10.305,10.305,0,0,0,12.7,0,1.084,1.084,0,0,0,.144-.115,10.322,10.322,0,0,0-6.5-18.347Zm0,18.533a8.158,8.158,0,0,1-4.533-1.37,4.907,4.907,0,0,1,9.067,0,8.159,8.159,0,0,1-4.534,1.37Zm-1.866-8.207a1.688,1.688,0,1,1,1.688,1.688,1.69,1.69,0,0,1-1.688-1.688Zm8.059,5.378a6.967,6.967,0,0,0-3.335-3.084,3.807,3.807,0,1,0-5.976.121,6.956,6.956,0,0,0-3.074,2.963,8.208,8.208,0,1,1,12.385,0Zm0,0"/><path class="a" d="M78.573,255.657l-.013-.011a1.06,1.06,0,0,0-1.378,1.61l.013.011a1.06,1.06,0,0,0,1.378-1.61Zm0,0"/><path class="a" d="M76.5,253.533l-.013-.016a1.059,1.059,0,0,0-1.621,1.364l0,0a1.059,1.059,0,1,0,1.632-1.35Zm0,0"/><path class="a" d="M74.788,251.1l-.013-.02a1.059,1.059,0,1,0-1.816,1.09v0a1.06,1.06,0,0,0,1.828-1.072Zm0,0"/><path class="a" d="M72.591,245.579a1.06,1.06,0,0,0-2.072.446l.005.022a1.06,1.06,0,0,0,2.067-.468Zm0,0"/><path class="a" d="M73.469,248.427l-.006-.015a1.059,1.059,0,1,0-1.965.792v0a1.06,1.06,0,0,0,1.97-.781Zm0,0"/><path class="a" d="M104.45,255.771a1.059,1.059,0,0,0-1.493-.125l-.013.011a1.06,1.06,0,0,0,1.378,1.61l.012-.011a1.058,1.058,0,0,0,.116-1.485Zm0,0"/><path class="a" d="M109.432,247.825a1.059,1.059,0,0,0-1.378.587l-.007.015a1.058,1.058,0,0,0,.984,1.444,1.062,1.062,0,0,0,.4-2.046Zm0,0"/><path class="a" d="M106.517,253.39a1.06,1.06,0,0,0-1.493.127l-.013.016a1.058,1.058,0,0,0,.817,1.729,1.062,1.062,0,0,0,.689-1.872Zm0,0"/><path class="a" d="M110.189,244.77a1.063,1.063,0,0,0-1.262.8v0a1.059,1.059,0,1,0,2.066.47l.005-.022a1.056,1.056,0,0,0-.808-1.255Zm0,0"/><path class="a" d="M108.195,250.723a1.059,1.059,0,0,0-1.454.36l-.012.02a1.059,1.059,0,1,0,1.466-.38Zm0,0"/><path class="a" d="M110.461,241.633a1.06,1.06,0,0,0-1.117,1v0a1.056,1.056,0,0,0,1,1.114l.059,0a1.06,1.06,0,0,0,.059-2.119Zm0,0"/><path class="a" d="M97.35,221.383l-.009,0a1.06,1.06,0,0,0-.652,2.017l.01,0a1.088,1.088,0,0,0,.326.052,1.06,1.06,0,0,0,.325-2.069Zm0,0"/><path class="a" d="M94.1,220.619l-.029,0a1.059,1.059,0,1,0-.314,2.1,1.12,1.12,0,0,0,.172.014,1.059,1.059,0,0,0,.171-2.1Zm0,0"/><path class="a" d="M90.746,220.379H90.72a1.059,1.059,0,0,0,.01,2.118h.016a1.06,1.06,0,0,0,0-2.119Zm0,0"/><path class="a" d="M85.471,222.1a1.059,1.059,0,0,0-1.321-.706l-.014,0a1.059,1.059,0,1,0,1.335.7Zm0,0"/><path class="a" d="M88.618,221.548a1.057,1.057,0,0,0-1.213-.877l.155,1.048-.156-1.047a1.059,1.059,0,0,0,.155,2.107,1.048,1.048,0,0,0,.157-.012l.023,0a1.061,1.061,0,0,0,.879-1.216Zm0,0"/><path class="a" d="M72.15,242.4a1.059,1.059,0,1,0-2.071.446l0,.021a1.06,1.06,0,0,0,1.033.826,1,1,0,0,0,.235-.027,1.057,1.057,0,0,0,.8-1.266Zm0,0"/></g></svg>