<svg xmlns="http://www.w3.org/2000/svg" width="54.242" height="39.123" viewBox="0 0 54.242 39.123"><defs><style>.a{fill:#233e99;}</style></defs><g transform="translate(-222.652 -305.272)"><path class="a" d="M276.584,318.272l-10.04-10.04a1.06,1.06,0,0,0-1.5,1.5l9.291,9.291-5.432,5.431a.427.427,0,0,1-.6,0l-10.726-10.726a.427.427,0,0,1,0-.6l3.645-3.646a1.059,1.059,0,1,0-1.5-1.5l-3.646,3.645a2.551,2.551,0,0,0-.54,2.8l-1.233,1.232h-8.621l-1.555-1.555a2.549,2.549,0,0,0-.655-2.477l-3.547-3.548a1.06,1.06,0,0,0-1.5,1.5l3.547,3.547a.426.426,0,0,1,0,.6l-.3.3-10.435,10.432-.009.01a.425.425,0,0,1-.591-.011l-5.431-5.432,9.416-9.416a1.06,1.06,0,0,0-1.5-1.5L222.963,318.27a1.059,1.059,0,0,0,0,1.5l6.181,6.182a2.544,2.544,0,0,0,2.683.585l3.479,3.479a3.622,3.622,0,0,0,3.2,5.32h.013a3.627,3.627,0,0,0,3.609,3.622v0a3.627,3.627,0,0,0,3.622,3.623,3.59,3.59,0,0,0,1.7-.426l1.295,1.3a3.215,3.215,0,0,0,5.486-2.138A3.271,3.271,0,0,0,257.342,338V338a3.564,3.564,0,0,0,3.337-3.562,3.466,3.466,0,0,0,2.991-5.02l3.475-3.178a2.544,2.544,0,0,0,3.258-.285l6.181-6.181a1.06,1.06,0,0,0,0-1.5Zm-38.079,14.943a1.5,1.5,0,1,1,1.5-1.5,1.5,1.5,0,0,1-1.5,1.5Zm4.755,3.119c-.044.041-.086.083-.127.126a1.5,1.5,0,1,1,.127-.126Zm3.566,3.674-.015.013-.015.016a1.5,1.5,0,0,1-2.166-2.075c.043-.041.085-.083.126-.125a1.5,1.5,0,0,1,2.07,2.171Zm14.7-8.084a1.344,1.344,0,0,1-1.9,0l-2.2-2.2a1.06,1.06,0,0,0-1.5,1.5l2.2,2.2h0l.007.007a1.437,1.437,0,0,1-.967,2.453,1.419,1.419,0,0,1-1.038-.392l-2.121-2.007a1.06,1.06,0,1,0-1.457,1.539l2.308,2.186a1.154,1.154,0,0,1,.023,1.655,1.156,1.156,0,0,1-1.634,0l-1.07-1.069a1.06,1.06,0,0,0-1.5,1.5l1.113,1.112a1.1,1.1,0,0,1-1.55,1.55l-1.3-1.3a3.619,3.619,0,0,0-3.185-5.319v-.005a3.626,3.626,0,0,0-3.622-3.622h-.013a3.621,3.621,0,0,0-5.323-3.2l-3.312-3.312,9.369-9.37,1.632,1.632a1.058,1.058,0,0,0,.749.31h1.372l-4.183,4.184a3.386,3.386,0,0,0,4.789,4.789l3.548-3.548,3.885.042,6.867,6.777a1.342,1.342,0,0,1,.007,1.9Zm.766-4.121-6.456-6.37-.01-.01a1.057,1.057,0,0,0-.869-.3l-4.612-.05a1.064,1.064,0,0,0-.761.31l-3.864,3.864a1.267,1.267,0,0,1-1.791-1.792l5.682-5.682h5.129a1.056,1.056,0,0,0,.749-.31l1.412-1.412,8.713,8.712Zm0,0"/><path class="a" d="M270.148,319.509a1.058,1.058,0,1,1-1.058-1.057,1.058,1.058,0,0,1,1.058,1.057Zm0,0"/><path class="a" d="M231.406,319.615a1.058,1.058,0,1,1-1.058-1.057,1.058,1.058,0,0,1,1.058,1.057Zm0,0"/><path class="a" d="M237.6,306.415a1.058,1.058,0,1,1-1.057-1.058,1.057,1.057,0,0,1,1.057,1.058Zm0,0"/><path class="a" d="M264.048,306.33a1.057,1.057,0,1,1-1.058-1.058,1.057,1.057,0,0,1,1.058,1.058Zm0,0"/></g></svg>