<svg xmlns="http://www.w3.org/2000/svg" width="24.789" height="26.029" viewBox="0 0 24.789 26.029"><defs><style>.a{fill:#21409a;fill-rule:evenodd;}</style></defs><path class="a" d="M335,2209.592v3.719a3.718,3.718,0,0,0,3.718,3.718h17.352a3.718,3.718,0,0,0,3.718-3.718v-3.719a1.239,1.239,0,0,0-2.479,0v3.719a1.239,1.239,0,0,1-1.239,1.24H338.718a1.239,1.239,0,0,1-1.239-1.24v-3.719a1.239,1.239,0,0,0-2.479,0Zm13.264.884.008-.008,4.957-4.957a1.239,1.239,0,0,0-1.753-1.753l-2.842,2.842v-14.36a1.239,1.239,0,1,0-2.479,0v14.36l-2.842-2.842a1.239,1.239,0,0,0-1.753,1.753l4.958,4.958a1.234,1.234,0,0,0,.868.363h.015a1.233,1.233,0,0,0,.862-.356Z" transform="translate(-335 -2191)"/></svg>