<svg xmlns="http://www.w3.org/2000/svg" width="69.476" height="40.557" viewBox="0 0 69.476 40.557"><defs><style>.a{fill:#21409a;}</style></defs><g transform="translate(-7026.673 -1166.952)"><path class="a" d="M239.143,402.747a1.06,1.06,0,1,1-1.06-1.059,1.06,1.06,0,0,1,1.06,1.059Zm0,0" transform="translate(6804 783)"/><path class="a" d="M245.193,406.278a1.059,1.059,0,1,1-1.059-1.059,1.06,1.06,0,0,1,1.059,1.059Zm0,0" transform="translate(6804 783)"/><path class="a" d="M251.22,399.711a1.06,1.06,0,1,1-1.059-1.059,1.06,1.06,0,0,1,1.059,1.059Zm0,0" transform="translate(6804 783)"/><path class="a" d="M257.128,402.325a1.059,1.059,0,1,1-1.06-1.06,1.06,1.06,0,0,1,1.06,1.06Zm0,0" transform="translate(6804 783)"/><path class="a" d="M262.967,394.843a1.059,1.059,0,1,1-1.059-1.06,1.059,1.059,0,0,1,1.059,1.06Zm0,0" transform="translate(6804 783)"/><path class="a" d="M275.857,415.748H254.4a1.061,1.061,0,0,0-1.06,1.06,1.79,1.79,0,0,1-1.788,1.787h-3.548a1.789,1.789,0,0,1-1.787-1.787,1.06,1.06,0,0,0-1.059-1.06H228.482V388.3a2.237,2.237,0,0,1,2.234-2.233h38.157a2.235,2.235,0,0,1,2.233,2.233v4.4a1.06,1.06,0,1,0,2.119,0v-4.4a4.357,4.357,0,0,0-4.352-4.352H230.716a4.357,4.357,0,0,0-4.352,4.352v27.444h-2.631a1.061,1.061,0,0,0-1.06,1.06v1.664a6.044,6.044,0,0,0,6.037,6.037h42.17a6.043,6.043,0,0,0,6.036-6.037v-1.664a1.06,1.06,0,0,0-1.059-1.06Zm-1.06,2.724a3.923,3.923,0,0,1-3.918,3.918H228.71a3.922,3.922,0,0,1-3.918-3.918v-.6h19.454a3.914,3.914,0,0,0,3.76,2.847h3.548a3.913,3.913,0,0,0,3.761-2.847H274.8Zm0,0" transform="translate(6804 783)"/><path class="a" d="M267.823,388.471h-35.7a1.06,1.06,0,0,0-1.06,1.06v22.821a1.06,1.06,0,0,0,1.06,1.059h35.7a1.059,1.059,0,0,0,1.059-1.059V389.531a1.059,1.059,0,0,0-1.059-1.06Zm-1.059,22.821h-3.8V398.6a1.059,1.059,0,1,0-2.118,0v12.7h-3.838v-4.714a1.059,1.059,0,1,0-2.118,0v4.714h-3.838v-7.161a1.059,1.059,0,1,0-2.119,0v7.161H245.1V410.27a1.06,1.06,0,1,0-2.119,0v1.022h-3.838v-4.2a1.059,1.059,0,0,0-2.118,0v4.2h-3.841v-20.7h33.58Zm0,0" transform="translate(6804 783)"/><path class="a" d="M273.1,412.84a1.06,1.06,0,1,1-1.06-1.059,1.059,1.059,0,0,1,1.06,1.059Zm0,0" transform="translate(6804 783)"/><path class="a" d="M-3565.685,2398.358c.016,0,.03,0,.046,0s.03,0,.045,0Zm6.916,10.615v-3.7a6.915,6.915,0,0,0-6.87-6.912,6.914,6.914,0,0,0-6.87,6.912v3.111h1.931V2406.1a5.236,5.236,0,0,1,4.939-5.459c-.011,0-.023,0-.034,0h.067c-.011,0-.022,0-.033,0a5.236,5.236,0,0,1,4.938,5.459v2.87h-12.658l-1.259,1.2v12.148l1.12,1.271h15.854l.933-1.2v-12.325l-.842-1.093Zm-6.037,6.548v5.185h-1.886v-5.253a1.943,1.943,0,0,1-.943-1.662,1.949,1.949,0,0,1,1.948-1.949,1.949,1.949,0,0,1,1.949,1.949A1.943,1.943,0,0,1-3564.806,2415.521Z" transform="translate(10652.861 -1229.689)"/></g></svg>