<svg xmlns="http://www.w3.org/2000/svg" width="14.18" height="19.269" viewBox="0 0 14.18 19.269"><defs><style>.a{fill:#21409a;fill-rule:evenodd;}</style></defs><g transform="translate(-162 -625)"><g transform="translate(162 625)"><path class="a" d="M1329.09,1302c-3.916,0-7.09,3.447-7.09,7.7s7.09,11.571,7.09,11.571,7.09-7.319,7.09-11.571S1333.005,1302,1329.09,1302Zm0,17.166s-5.8-5.989-5.8-9.468a5.82,5.82,0,1,1,11.6,0C1334.89,1313.177,1329.089,1319.166,1329.089,1319.166Z" transform="translate(-1322 -1302)"/></g><path class="a" d="M1333.038,1311a3.039,3.039,0,1,0,3.038,3.039A3.01,3.01,0,0,0,1333.038,1311Zm0,5.064a2.026,2.026,0,1,1,2.026-2.026A1.985,1.985,0,0,1,1333.038,1316.064Z" transform="translate(-1163.949 -681.442)"/></g></svg>