<svg xmlns="http://www.w3.org/2000/svg" width="57.571" height="57.941" viewBox="0 0 57.571 57.941"><defs><style>.a{fill:#ffffff;}</style></defs><g transform="translate(-675.367 -1216.69)"><g transform="translate(675.367 1226.198)"><path class="a" d="M351.172,174.094a.946.946,0,1,1-.947-.946.946.946,0,0,1,.947.946Zm0,0" transform="translate(-309.178 -142.111)"/><path class="a" d="M310.842,174.094a.946.946,0,1,1-.946-.946.945.945,0,0,1,.946.946Zm0,0" transform="translate(-304.858 -142.111)"/><path class="a" d="M350.4,184.928h-8.124l-.05-23.248a.946.946,0,0,0-.946-.945h0a.946.946,0,0,0-.945.948l.05,23.245h-2.748l-.024-10.344a.946.946,0,0,0-.946-.943h0a.945.945,0,0,0-.944.948l.024,10.339h-2.3V172.407a5.188,5.188,0,0,0,4.783-5.109V158.13a10.283,10.283,0,0,0-.9-4.207,7.831,7.831,0,0,1,4.945,2.177,7.331,7.331,0,0,1,2.277,5.295l.018,5.384a.945.945,0,0,0,.946.943h0a.946.946,0,0,0,.943-.949l-.017-5.383a9.214,9.214,0,0,0-2.855-6.65,9.665,9.665,0,0,0-3.65-2.217,5,5,0,0,0-3.448-8.631h-.011a5.027,5.027,0,0,0-2.308.569.946.946,0,0,0,.878,1.677,3.114,3.114,0,1,1,1.448,5.874,1.048,1.048,0,0,0-.12.008l-.152.007a10.765,10.765,0,0,0-5.472-3.916,5.55,5.55,0,1,0-7.139.145,10.76,10.76,0,0,0-5.041,3.766c-.15-.006-.3-.011-.448-.011l-.213,0-.052,0a3.114,3.114,0,1,1,1.485-5.851.946.946,0,0,0,.9-1.663,5,5,0,0,0-5.675,8.171,9.424,9.424,0,0,0-6.113,8.743v5.365a.946.946,0,0,0,1.892,0V161.41a7.625,7.625,0,0,1,7.108-7.479,10.265,10.265,0,0,0-.9,4.2V167.3a5.2,5.2,0,0,0,4.943,5.122v12.508h-2.577V174.587a.946.946,0,1,0-1.892,0v10.341H314.71V161.691a.946.946,0,1,0-1.892,0v23.237h-7.506a.946.946,0,0,0,0,1.893H350.4a.946.946,0,0,0,0-1.893Zm-26.959-40.99A3.658,3.658,0,1,1,327.1,147.6a3.662,3.662,0,0,1-3.658-3.658ZM332.5,157.5a.946.946,0,0,0-.946.946v26.48h-3.37V171.765a.946.946,0,0,0-1.892,0v13.163H323.4v-26.48a.946.946,0,1,0-1.893,0v12.074a3.294,3.294,0,0,1-3.05-3.224V158.13a8.4,8.4,0,0,1,1.377-4.609,9.108,9.108,0,0,1,15.132.01,8.407,8.407,0,0,1,1.371,4.6V167.3a3.288,3.288,0,0,1-2.891,3.206V158.449a.946.946,0,0,0-.946-.946Zm0,0" transform="translate(-304.367 -138.388)"/></g><g transform="translate(712.272 1216.69)"><path class="a" d="M-1480.537,2868.936l-2-2.066.4-2.846a.815.815,0,0,0-.666-.917l-2.832-.5-1.348-2.541a.815.815,0,0,0-1.078-.35l-2.583,1.262-2.583-1.262a.815.815,0,0,0-1.078.351l-1.347,2.54-2.832.5a.815.815,0,0,0-.666.917l.4,2.846-2,2.066a.815.815,0,0,0,0,1.134l2,2.066-.4,2.848a.815.815,0,0,0,.666.917l2.267.4v8.815a.814.814,0,0,0,.387.693.813.813,0,0,0,.428.122.821.821,0,0,0,.365-.086l4.395-2.2,4.394,2.2a.816.816,0,0,0,.793-.036.815.815,0,0,0,.387-.693V2876.3l2.267-.4a.815.815,0,0,0,.666-.917l-.4-2.848,2-2.066A.815.815,0,0,0-1480.537,2868.936Zm-9.739,13.069a.814.814,0,0,0-.729,0l-3.58,1.79V2878.4l.283.533a.815.815,0,0,0,1.078.351l2.583-1.264,2.582,1.264a.817.817,0,0,0,.358.083.815.815,0,0,0,.72-.433l.283-.533v5.391Zm6.291-10.716a.815.815,0,0,0-.221.681l.348,2.461-2.448.429a.815.815,0,0,0-.579.42l-1.165,2.2-2.232-1.092a.809.809,0,0,0-.358-.083.809.809,0,0,0-.358.083l-2.233,1.092-1.165-2.2a.815.815,0,0,0-.579-.42l-2.448-.429.348-2.462a.815.815,0,0,0-.221-.681l-1.728-1.786,1.728-1.786a.815.815,0,0,0,.221-.681l-.348-2.459,2.448-.43a.817.817,0,0,0,.579-.42l1.164-2.2,2.233,1.091a.815.815,0,0,0,.716,0l2.232-1.091,1.165,2.2a.816.816,0,0,0,.579.42l2.448.429-.348,2.46a.815.815,0,0,0,.221.681l1.728,1.786Z" transform="translate(1500.974 -2859.636)"/><path class="a" d="M-1451.61,2899.143a5.58,5.58,0,0,0-5.574,5.573,5.581,5.581,0,0,0,5.574,5.575,5.58,5.58,0,0,0,5.574-5.575A5.58,5.58,0,0,0-1451.61,2899.143Zm0,9.518a3.949,3.949,0,0,1-3.944-3.945,3.948,3.948,0,0,1,3.944-3.943,3.948,3.948,0,0,1,3.943,3.943A3.949,3.949,0,0,1-1451.61,2908.661Z" transform="translate(1461.943 -2894.85)"/></g></g></svg>