<svg xmlns="http://www.w3.org/2000/svg" width="14.482" height="14.508" viewBox="0 0 14.482 14.508"><defs><style>.a{fill:#21409a;fill-rule:evenodd;}</style></defs><path class="a" d="M533.6,2108.846a.664.664,0,0,1,.563.687v1.985a.661.661,0,0,1-.721.664,12.421,12.421,0,0,1-5.409-1.928,12.243,12.243,0,0,1-3.771-3.77,12.439,12.439,0,0,1-1.932-5.451.661.661,0,0,1,.66-.711h1.984a.663.663,0,0,1,.668.569,9.167,9.167,0,0,0,.5,2,.663.663,0,0,1-.148.7l-.838.838a.661.661,0,0,0-.107.794,11.241,11.241,0,0,0,4.218,4.218.661.661,0,0,0,.8-.107l.84-.84a.661.661,0,0,1,.7-.146A9.171,9.171,0,0,0,533.6,2108.846Zm1.243,4.14a1.985,1.985,0,0,0,.643-1.471v-1.975a1.985,1.985,0,0,0-1.707-2.006,7.867,7.867,0,0,1-1.72-.428,1.984,1.984,0,0,0-2.093.447l-.477.477a9.932,9.932,0,0,1-3.034-3.034l.474-.475a1.986,1.986,0,0,0,.449-2.1,7.817,7.817,0,0,1-.426-1.713,1.986,1.986,0,0,0-1.986-1.713h-1.978a1.985,1.985,0,0,0-1.976,2.164,13.765,13.765,0,0,0,2.135,6.036,13.557,13.557,0,0,0,4.17,4.169,13.75,13.75,0,0,0,5.993,2.131A1.991,1.991,0,0,0,534.844,2112.986Z" transform="translate(-521.005 -2099)"/></svg>