<svg xmlns="http://www.w3.org/2000/svg" width="39.229" height="54.243" viewBox="0 0 39.229 54.243"><defs><style>.a{fill:#ffffff;}</style></defs><g transform="translate(-71.101 -58.647)"><path class="a" d="M109.936,86.552l-3.291-6.012V76.42a17.772,17.772,0,1,0-35.544,0v3.052a18.252,18.252,0,0,0,3.3,10.511v7.6a1.059,1.059,0,1,0,2.119,0V89.644a1.063,1.063,0,0,0-.2-.623,16.149,16.149,0,0,1-3.1-9.549V76.42a15.653,15.653,0,1,1,31.306,0v4.391a1.054,1.054,0,0,0,.131.509l3.421,6.25a1.044,1.044,0,0,1-.915,1.545h-.006l-1.566-.007h-.005a1.062,1.062,0,0,0-1.06,1.059v4.728a4.586,4.586,0,0,1-4.581,4.582H96.764a2.622,2.622,0,0,0-2.618,2.618v8.1L80.234,103.94a1.059,1.059,0,1,0-.868,1.932L94.771,112.8a1.067,1.067,0,0,0,.435.093,1.06,1.06,0,0,0,1.059-1.059V102.1a.5.5,0,0,1,.5-.5h3.18a6.709,6.709,0,0,0,6.7-6.7V91.231l.5,0h.015a3.163,3.163,0,0,0,2.773-4.682Zm0,0"/><path class="a" d="M90.645,77.307h-2.3a1.762,1.762,0,0,1-1.761-1.761v-1.34a1.762,1.762,0,0,1,1.761-1.761h2.552a1.514,1.514,0,0,1,1.513,1.512,1.06,1.06,0,1,0,2.119,0,3.636,3.636,0,0,0-3.632-3.631h-.341V68.6a1.059,1.059,0,1,0-2.118,0v1.725h-.093a3.885,3.885,0,0,0-3.88,3.881v1.339a3.885,3.885,0,0,0,3.88,3.881h2.3a1.763,1.763,0,0,1,1.762,1.761v1.34a1.764,1.764,0,0,1-1.762,1.762H88.093a1.514,1.514,0,0,1-1.512-1.513,1.06,1.06,0,1,0-2.119,0,3.636,3.636,0,0,0,3.631,3.632h.342v1.726a1.059,1.059,0,0,0,2.118,0V86.408h.093a3.885,3.885,0,0,0,3.88-3.881v-1.34a3.885,3.885,0,0,0-3.881-3.88Zm0,0"/><path class="a" d="M76.547,102.906a1.059,1.059,0,1,1-1.06-1.06,1.06,1.06,0,0,1,1.06,1.06Zm0,0"/></g></svg>