<svg xmlns="http://www.w3.org/2000/svg" xmlns:xlink="http://www.w3.org/1999/xlink" width="244.481" height="47.405" viewBox="0 0 244.481 47.405"><defs><style>.a{fill:none;}.b{fill:#003189;}.c{clip-path:url(#a);}.d{fill:#6d6f72;}.e{fill:url(#b);}.f{fill:url(#c);}.g{fill:url(#d);}.h{fill:url(#e);}</style><clipPath id="a"><rect class="a" width="82.597" height="12.451"/></clipPath><linearGradient id="b" x1="0.101" y1="-0.257" x2="0.741" y2="0.807" gradientUnits="objectBoundingBox"><stop offset="0" stop-color="#ccc"/><stop offset="0.167" stop-color="#c6c6c6"/><stop offset="0.389" stop-color="#b5b5b5"/><stop offset="0.641" stop-color="#999"/><stop offset="0.913" stop-color="#737373"/><stop offset="1" stop-color="#666"/></linearGradient><linearGradient id="c" x1="73.816" y1="269.797" x2="74.173" y2="267.665" gradientUnits="objectBoundingBox"><stop offset="0.184" stop-color="#ccc"/><stop offset="0.32" stop-color="#c6c6c6"/><stop offset="0.501" stop-color="#b5b5b5"/><stop offset="0.707" stop-color="#999"/><stop offset="0.929" stop-color="#737373"/><stop offset="1" stop-color="#666"/></linearGradient><linearGradient id="d" x1="0.215" y1="0.119" x2="0.855" y2="1.184" xlink:href="#b"/><linearGradient id="e" x1="0.95" y1="0.135" x2="0.317" y2="0.859" gradientUnits="objectBoundingBox"><stop offset="0" stop-color="#999"/><stop offset="0.258" stop-color="#939393"/><stop offset="0.6" stop-color="#828282"/><stop offset="0.988" stop-color="#666"/><stop offset="1" stop-color="#666"/></linearGradient></defs><g transform="translate(0 -65.651)"><g transform="translate(-73.106 -239.33)"><rect class="b" width="2.913" height="19.53" transform="translate(131.914 311.908)"/><path class="b" d="M138.4,329.634,126.375,314.79h-.054v14.843H123.41V310.1h2.911l12.027,14.843h.054V310.1h2.913v19.53Z" transform="translate(17.721 1.805)"/><path class="b" d="M148.7,312.915v16.719h-2.913V312.915h-7.091V310.1h17.1v2.812Z" transform="translate(23.105 1.805)"/><path class="b" d="M153.431,329.634V310.1h15.033v2.812H156.346v5.237h9.889v2.814h-9.889v5.854h12.118v2.813Z" transform="translate(28.297 1.805)"/><path class="b" d="M167.948,329.634V310.1h2.911v16.717H181.1v2.813Z" transform="translate(33.411 1.805)"/><rect class="b" width="2.911" height="19.53" transform="translate(217.769 311.908)"/><path class="b" d="M196.267,330.466c-5.262,0-10.767-3.567-10.767-10.207,0-5.574,4.506-10.156,10.82-10.156a11.314,11.314,0,0,1,8.349,3.543l-1.974,2.005a7.722,7.722,0,0,0-6.084-2.736c-5.24,0-8.265,3.386-8.265,7.474,0,3.824,3.052,7.264,8.054,7.264,3.423,0,5.87-1.562,5.87-3.229v-2.187h-6.211v-2.813h9.056V324.6c0,3.519-3.9,5.861-8.848,5.861" transform="translate(39.594 1.804)"/><path class="b" d="M213.164,312.916a7.378,7.378,0,1,0,7.738,7.37,7.458,7.458,0,0,0-7.738-7.37m0,17.55c-5.661,0-10.584-4.035-10.584-10.18,0-6.122,4.924-10.183,10.584-10.183s10.586,4.038,10.586,10.183c0,6.118-4.926,10.18-10.586,10.18" transform="translate(45.611 1.804)"/><rect class="b" width="39.203" height="39.203" transform="translate(73.106 311.943)"/><g transform="translate(131.914 338.695)"><g transform="translate(0)"><g class="c"><path class="d" d="M138.557,337.307a3.644,3.644,0,0,0,1.029-.272,3.576,3.576,0,0,0,1.03-.645,3.49,3.49,0,0,0,.792-1.03,3.042,3.042,0,0,0,.316-1.425,3.059,3.059,0,0,0-1.425-2.74,4.233,4.233,0,0,0-1.437-.576,7.679,7.679,0,0,0-1.6-.17H130v11.726h1.542v-4.755h5.183l3.328,4.755h1.923Zm1.381-2.41a1.854,1.854,0,0,1-.656.6,2.738,2.738,0,0,1-.928.306,7.263,7.263,0,0,1-1.087.08H131.54v-3.895h5.727a7.928,7.928,0,0,1,1.017.068,3.09,3.09,0,0,1,.941.272,1.791,1.791,0,0,1,.69.59,1.731,1.731,0,0,1,.272,1.018,1.705,1.705,0,0,1-.249.963" transform="translate(-111.872 -329.723)"/><path class="d" d="M155.806,333.591a5.861,5.861,0,0,0-1.493-1.958,6.928,6.928,0,0,0-2.242-1.268,8.808,8.808,0,0,0-5.569,0,6.907,6.907,0,0,0-2.241,1.268,5.94,5.94,0,0,0,0,9.009,6.907,6.907,0,0,0,2.241,1.268,8.808,8.808,0,0,0,5.569,0,6.928,6.928,0,0,0,2.242-1.268,6.076,6.076,0,0,0,1.493-7.051m-1.381,4.325a4.477,4.477,0,0,1-1.109,1.493,5.575,5.575,0,0,1-1.743,1.03,7,7,0,0,1-4.573,0,5.537,5.537,0,0,1-1.742-1.03,4.463,4.463,0,0,1-1.11-1.493,4.292,4.292,0,0,1,0-3.555,4.445,4.445,0,0,1,1.11-1.5,5.562,5.562,0,0,1,1.742-1.03,7.022,7.022,0,0,1,4.573,0,5.6,5.6,0,0,1,1.743,1.03,4.459,4.459,0,0,1,1.109,1.5,4.292,4.292,0,0,1,0,3.555" transform="translate(-107.565 -329.912)"/><path class="d" d="M167.6,330.181h-1.54v7.22a4.042,4.042,0,0,1-.216,1.359,2.54,2.54,0,0,1-.7,1.052,3.288,3.288,0,0,1-1.268.679,7.991,7.991,0,0,1-3.872,0,3.363,3.363,0,0,1-1.266-.667,2.438,2.438,0,0,1-.7-1.053,4.176,4.176,0,0,1-.214-1.37v-7.22h-1.539v7.22a5.257,5.257,0,0,0,.463,2.342,3.91,3.91,0,0,0,1.244,1.494,5.048,5.048,0,0,0,1.813.794,9.731,9.731,0,0,0,4.277,0,5.045,5.045,0,0,0,1.811-.794,3.9,3.9,0,0,0,1.245-1.494,5.256,5.256,0,0,0,.465-2.342Z" transform="translate(-102.612 -329.817)"/><path class="d" d="M180.236,332.293a3.066,3.066,0,0,0-1-1.121,3.894,3.894,0,0,0-1.348-.565,6.728,6.728,0,0,0-1.415-.158H169.3v11.727h1.538v-4.438h5.638a7.267,7.267,0,0,0,1.415-.146,3.83,3.83,0,0,0,1.348-.544,2.992,2.992,0,0,0,1-1.1,4.529,4.529,0,0,0,0-3.656M178.47,335.7a3.155,3.155,0,0,1-1.992.5h-5.638v-4.211h5.638a3.108,3.108,0,0,1,1.992.51,1.993,1.993,0,0,1,.611,1.62,1.925,1.925,0,0,1-.611,1.582" transform="translate(-98.025 -329.723)"/><path class="d" d="M129.61,335.617h-5.387v1.54h3.849v2.308a7.228,7.228,0,0,1-.679.441,5.969,5.969,0,0,1-.963.442,8.332,8.332,0,0,1-1.244.338,7.832,7.832,0,0,1-1.529.137,6.957,6.957,0,0,1-2.365-.372,5.119,5.119,0,0,1-1.731-1.02,4.29,4.29,0,0,1-1.064-1.506,4.631,4.631,0,0,1-.362-1.811,4.188,4.188,0,0,1,.43-1.9,4.407,4.407,0,0,1,1.189-1.473,5.615,5.615,0,0,1,1.788-.949,7.063,7.063,0,0,1,2.23-.339,7.138,7.138,0,0,1,1.585.158,6.722,6.722,0,0,1,1.256.407,7.919,7.919,0,0,1,.986.521c.285.181.55.356.791.521l.838-1.29q-.272-.18-.736-.5a7.506,7.506,0,0,0-1.133-.622,8.616,8.616,0,0,0-1.562-.522,8.767,8.767,0,0,0-2.026-.215,8.495,8.495,0,0,0-2.784.453,7.166,7.166,0,0,0-2.287,1.268,5.97,5.97,0,0,0-1.538,1.958,5.573,5.573,0,0,0-.567,2.523,6.037,6.037,0,0,0,.487,2.422,5.738,5.738,0,0,0,1.4,1.981,6.831,6.831,0,0,0,2.206,1.347,7.924,7.924,0,0,0,2.875.5,8.943,8.943,0,0,0,2.434-.306,10.446,10.446,0,0,0,1.835-.691,7.108,7.108,0,0,0,1.2-.737c.295-.233.487-.388.577-.463Z" transform="translate(-116.594 -329.912)"/></g></g></g><path class="d" d="M91.427,314.6S74.544,328.706,87,349.326h8.69C77.748,327.01,91.427,314.6,91.427,314.6m6.081-4.442s-21.827,13.193,2.907,39.173h11.171c-29.862-23.785-14.079-39.173-14.079-39.173m-9.644,7.225S70.553,331.05,76.339,349.326h6.7c-9.78-19.5,4.821-31.948,4.821-31.948" transform="translate(0.722 1.822)"/><rect class="d" width="0.653" height="47.325" transform="translate(276.303 304.981)"/><g transform="translate(285.032 314.756)"><path class="e" d="M249.037,322.914q-1.9-.016-3.818,0c-.26,0-.349-.038-.277-.3.4-1.462.794-2.925,1.149-4.391.077-.315.207-.333.479-.333,3,.007,5.995-.012,8.991,0,.239,0,.319-.041.357-.281.091-.577.145-1.093.229-1.639.047-.306,0-.4-.356-.4-1.858.02-3.712.008-5.569.008s-4.239.008-6.1-.007c-.3,0-.41.069-.477.353-.365,1.5-.78,3-1.166,4.495s-.745,2.993-1.141,4.488c-.065.243-.024.331.275.329,2.142-.014,4.786,0,6.928-.009a5.756,5.756,0,0,1,1.087.091,5.09,5.09,0,0,1,4.153,6.767,7.4,7.4,0,0,1-8.295,4.611,5.132,5.132,0,0,1-4.049-4.321h-2.563c.007.166.005.3.019.429.467,4.33,4.626,7.116,9.482,6.214,4.784-.887,8.334-4.926,8.225-9.259C256.5,325.937,253.207,322.951,249.037,322.914Z" transform="translate(-226.636 -311.026)"/><path class="f" d="M262.279,331.919S260.343,315.552,241,321.8l-10.92,9.025,5.223.036c21.526-16.563,26.986,1.087,26.986,1.087" transform="translate(-229.733 -309.332)"/><path class="g" d="M233.784,333.556h.345c3.854,0,6.2,0,10.057-.005.27,0,.357.051.307.318-.1.538-.17,1.079-.224,1.619-.026.252-.1.327-.387.326-2.176-.012-2.847-.007-5.024-.007q-4.353,0-8.709.005c-.262,0-.364-.039-.312-.314.1-.5.153-1,.214-1.52a.654.654,0,0,1,.275-.454q5.156-4.254,10.3-8.519a17.451,17.451,0,0,0,3.5-3.716,4.916,4.916,0,0,0,.861-3.652,3.728,3.728,0,0,0-3.408-3.085,6.752,6.752,0,0,0-4.826.971,6.939,6.939,0,0,0-2.032,1.964c-.165.238-.261.235-.458.109-.48-.3-.967-.6-1.469-.872-.2-.109-.187-.193-.051-.376a9.778,9.778,0,0,1,7.208-4.087,7.153,7.153,0,0,1,6.364,2.227,5.284,5.284,0,0,1,1.264,3.82c-.046,2.419-1.343,4.414-3.163,6.245a36.64,36.64,0,0,1-2.8,2.533q-3.767,3.075-7.528,6.156c-.1.085-.22.158-.33.238Z" transform="translate(-229.823 -312.21)"/><path class="h" d="M245.744,314.414a6.8,6.8,0,0,0-.994-.9,7.273,7.273,0,0,1,.542.521,5.272,5.272,0,0,1,1.25,3.816c-.047,2.421-1.343,4.415-3.163,6.246a36.345,36.345,0,0,1-2.8,2.531q-3.767,3.077-7.528,6.157c-.1.085-.22.158-.33.238l.032.077h.644c.07-.049.142-.1.207-.149,2.465-2.015,5.059-4.153,7.524-6.166a35.9,35.9,0,0,0,2.751-2.488c1.786-1.8,3.06-3.757,3.1-6.134A5.182,5.182,0,0,0,245.744,314.414Z" transform="translate(-228.802 -311.749)"/></g><g transform="translate(285.499 345.504)"><path class="d" d="M233.84,335.926h.43l1.9,5.539-.529,0-.629-1.827-3.12.01-1.19,1.831-.538,0Zm1.1,3.387-.963-2.9-1.912,2.911Z" transform="translate(-230.169 -334.602)"/><path class="d" d="M236.294,336.259h.337l3.351,4.872.577-4.876h.429l-.664,5.54h-.379l-3.309-4.786-.577,4.8h-.427Zm2.933-.661a.823.823,0,0,1-.3-.046,1.655,1.655,0,0,1-.23-.1q-.1-.059-.2-.11a.443.443,0,0,0-.215-.05.394.394,0,0,0-.214.055.446.446,0,0,0-.128.122.58.58,0,0,0-.068.126.216.216,0,0,0-.02.073h-.276a1.038,1.038,0,0,1,.042-.137.861.861,0,0,1,.123-.219.9.9,0,0,1,.222-.2.632.632,0,0,1,.346-.091.659.659,0,0,1,.269.05c.077.034.149.07.218.108s.138.074.206.105a.6.6,0,0,0,.249.046.485.485,0,0,0,.245-.055.555.555,0,0,0,.146-.122.492.492,0,0,0,.076-.126.221.221,0,0,0,.02-.074h.268a.851.851,0,0,1-.042.145.772.772,0,0,1-.127.215.936.936,0,0,1-.238.2A.723.723,0,0,1,239.227,335.6Z" transform="translate(-228.245 -334.947)"/><path class="d" d="M243.165,341.492a2.855,2.855,0,0,1-1.062-.184,2.57,2.57,0,0,1-.818-.5,2.542,2.542,0,0,1-.8-1.586,2.367,2.367,0,0,1,.2-1.243,3.3,3.3,0,0,1,.763-1.072,3.811,3.811,0,0,1,1.181-.753,3.733,3.733,0,0,1,1.436-.285,2.719,2.719,0,0,1,1.057.192,2.673,2.673,0,0,1,.814.513,2.487,2.487,0,0,1,.545.733,2.565,2.565,0,0,1,.249.851,2.373,2.373,0,0,1-.2,1.235,3.282,3.282,0,0,1-.764,1.068,3.929,3.929,0,0,1-1.171.749A3.661,3.661,0,0,1,243.165,341.492Zm.058-.366a3.006,3.006,0,0,0,1.252-.265,3.19,3.19,0,0,0,.982-.683,2.873,2.873,0,0,0,.613-.944,2.167,2.167,0,0,0,.15-1.039,2.208,2.208,0,0,0-.219-.753,2.149,2.149,0,0,0-.464-.623,2.172,2.172,0,0,0-.683-.427,2.267,2.267,0,0,0-.863-.158,3,3,0,0,0-1.252.266,3.245,3.245,0,0,0-.987.682,2.822,2.822,0,0,0-.617.944,2.174,2.174,0,0,0-.15,1.047,2.209,2.209,0,0,0,.219.753,2.125,2.125,0,0,0,1.145,1.048A2.347,2.347,0,0,0,243.223,341.126Z" transform="translate(-226.541 -334.623)"/><path class="d" d="M248.226,341.486a3.654,3.654,0,0,1-2.5-.821l.318-.322a2.431,2.431,0,0,0,.918.58,3.743,3.743,0,0,0,1.329.211,2.969,2.969,0,0,0,1.529-.334.912.912,0,0,0,.473-.945.8.8,0,0,0-.526-.651,5.711,5.711,0,0,0-1.356-.376q-.448-.075-.8-.169a2.973,2.973,0,0,1-.6-.22,1.161,1.161,0,0,1-.391-.311.855.855,0,0,1-.17-.441,1.329,1.329,0,0,1,.131-.771,1.6,1.6,0,0,1,.525-.575,2.64,2.64,0,0,1,.847-.362,4.549,4.549,0,0,1,1.1-.127,3.547,3.547,0,0,1,1.126.156,2.189,2.189,0,0,1,.83.485l-.307.314a2.176,2.176,0,0,0-1.709-.6,3.744,3.744,0,0,0-.971.108,1.923,1.923,0,0,0-.64.285.97.97,0,0,0-.339.427,1.116,1.116,0,0,0-.064.535.631.631,0,0,0,.139.343.961.961,0,0,0,.335.241,2.847,2.847,0,0,0,.533.179q.316.077.736.154c.3.055.575.116.826.18a3.01,3.01,0,0,1,.648.241,1.421,1.421,0,0,1,.434.342.913.913,0,0,1,.195.488,1.268,1.268,0,0,1-.128.751,1.448,1.448,0,0,1-.527.548,2.779,2.779,0,0,1-.855.334A4.945,4.945,0,0,1,248.226,341.486Z" transform="translate(-224.687 -334.628)"/></g></g></g></svg>