<svg xmlns="http://www.w3.org/2000/svg" width="34.57" height="45.345" viewBox="0 0 34.57 45.345"><defs><style>.a{fill:#fff;}</style></defs><path class="a" d="M1135.838,1979.974h16.649v10.656h9.877v26.5h-26.526Zm22.93,2.4-3.956-3.968a2.523,2.523,0,0,0-1.726-.827h-17.344a2.2,2.2,0,0,0-1.537.676,2.195,2.195,0,0,0-.609,1.565v33.79h-1.2v-37.23h26.37Zm-3.979,5.909v-5.909l5.909,5.909Zm9.182-.815-2.481-2.481a1.269,1.269,0,0,1-.384-.923v-7.755a2.218,2.218,0,0,0-2.205-2.206h-26.67a2.205,2.205,0,0,0-2.229,2.206v37.4a2.205,2.205,0,0,0,.161.859,2.192,2.192,0,0,0,2.069,1.37h1.366v1.307a2.194,2.194,0,0,0,1.352,2.038,2.179,2.179,0,0,0,.841.168h26.574a2.206,2.206,0,0,0,2.205-2.206v-28.216A2.241,2.241,0,0,0,1163.97,1987.465Z" transform="translate(-1130 -1974.1)"/></svg>