<svg xmlns="http://www.w3.org/2000/svg" width="47.818" height="47.819" viewBox="0 0 47.818 47.819"><defs><style>.a{fill:#fff;}</style></defs><path class="a" d="M142.34,2304.407h-10.8v-1.543h10.8ZM130,2301.323v4.627h13.883v-4.627Z" transform="translate(-130 -2258.132)"/><path class="a" d="M142.34,2301.956h-10.8v-1.543h10.8ZM130,2298.871v4.627h13.883v-4.627Z" transform="translate(-130 -2258.765)"/><path class="a" d="M142.34,2299.5h-10.8v-1.543h10.8ZM130,2296.419v4.628h13.883v-4.628Z" transform="translate(-130 -2259.399)"/><path class="a" d="M146.886,2301.323v1.542H154.6v1.542H143.8v-1.542h1.543v-1.542h-3.085v4.627h13.883v-4.627Z" transform="translate(-126.832 -2258.132)"/><path class="a" d="M142.258,2298.871v3.856H143.8v-2.314h10.8v2.314h1.543v-3.856Z" transform="translate(-126.832 -2258.765)"/><path class="a" d="M154.6,2299.5H143.8v-1.543h10.8Zm-12.34-3.085v4.628h13.883v-4.628Z" transform="translate(-126.832 -2259.399)"/><path class="a" d="M154.6,2297.052H143.8v-1.541h10.8Zm-12.34-3.084v4.627h13.883v-4.627Z" transform="translate(-126.832 -2260.032)"/><path class="a" d="M166.857,2304.407h-10.8v-1.543h10.8Zm-12.341-3.084v4.627H168.4v-4.627Z" transform="translate(-123.665 -2258.132)"/><path class="a" d="M166.857,2301.956h-10.8v-1.543h10.8Zm-12.341-3.085v4.627H168.4v-4.627Z" transform="translate(-123.665 -2258.765)"/><path class="a" d="M166.857,2299.5h-10.8v-1.543h10.8Zm-12.341-3.085v4.628H168.4v-4.628Z" transform="translate(-123.665 -2259.399)"/><path class="a" d="M166.857,2297.052h-10.8v-1.541h10.8Zm-12.341-3.084v4.627H168.4v-4.627Z" transform="translate(-123.665 -2260.032)"/><path class="a" d="M166.189,2267a2.314,2.314,0,0,0,0,4.627h3.537l-11.361,11.362-6.11-3.818-22.022,17.3.954,1.213,21.169-16.627,6.232,3.893,14.862-14.861h-7.261a.771.771,0,0,1,0-1.543h10.027v10.027a.771.771,0,1,1-1.543,0v-6.489l-15.559,15.558-6.886-3.825-19.685,15.748.964,1.206,18.877-15.1,7,3.889,13.749-13.749v2.766a2.314,2.314,0,0,0,4.627,0V2267Z" transform="translate(-129.94 -2267)"/></svg>