<svg xmlns="http://www.w3.org/2000/svg" width="57.767" height="56.807" viewBox="0 0 57.767 56.807"><defs><style>.a,.b{fill:#fff;}.a{fill-rule:evenodd;}</style></defs><g transform="translate(0 0)"><path class="a" d="M948.206,1316.453a5.618,5.618,0,1,1-5.618-5.618A5.617,5.617,0,0,1,948.206,1316.453Zm19.684,18.334v3.745a1.873,1.873,0,1,1-3.746,0v-3.744a5.617,5.617,0,0,0-4.213-5.435,1.872,1.872,0,1,1,.936-3.625A9.361,9.361,0,0,1,967.89,1334.787Zm-8.536,6.14v-3.4a8.6,8.6,0,0,0-8.709-8.492H936.709A8.6,8.6,0,0,0,928,1337.53v3.4a1.742,1.742,0,0,0,3.484,0v-3.4a5.162,5.162,0,0,1,5.226-5.1h13.936a5.162,5.162,0,0,1,5.226,5.1v3.4a1.742,1.742,0,0,0,3.484,0Zm-16.766-15.111a9.363,9.363,0,1,1,9.363-9.363A9.363,9.363,0,0,1,942.588,1325.816Zm11.73-17.129a5.618,5.618,0,0,1,0,10.884,1.872,1.872,0,1,0,.929,3.628,9.363,9.363,0,0,0,0-18.141,1.873,1.873,0,0,0-.929,3.629Z" transform="translate(-910.123 -1285.818)"/><path class="b" d="M135.091,1570.031,135,1583c0,.241-.178.512-.4.512h-3.731a.5.5,0,0,1-.193-.04.479.479,0,0,1-.162-.112.493.493,0,0,1-.136-.361v-12.97a.5.5,0,0,1,.034-.192.509.509,0,0,1,.265-.278.5.5,0,0,1,.191-.042H134.6a.49.49,0,0,1,.193.04.491.491,0,0,1,.3.472Zm12.03,14.308h-7.5c-1.212,0-2.028-.982-2.028-2.446v-11.5a8.36,8.36,0,0,0,5.079-7.786v-4.369a3.454,3.454,0,0,1,1.86.261c.606.4.909,1.307.909,2.78v5.612a1.151,1.151,0,0,0,.057.453,1.17,1.17,0,0,0,.231.393,1.142,1.142,0,0,0,.809.377l7.515.115a2.4,2.4,0,0,1,2.383,2.414,5,5,0,0,0,.219,1.557v.073a1.793,1.793,0,0,0,.794.46,1.044,1.044,0,0,0,.8-.167,1.292,1.292,0,0,0,.543-.857v-.972a4.863,4.863,0,0,0-1.286-3.459,4.233,4.233,0,0,0-3.292-1.536l-6.354-.084v-4.421c0-2.226-.606-3.731-1.892-4.745s-2.843-1.045-4.891-.491a1.231,1.231,0,0,0-.7,1.191v5.414c0,3.658-3.9,5.226-4.181,5.351a2.245,2.245,0,0,0-1.62-.679H130.1a2.3,2.3,0,0,0-.881.21,2.28,2.28,0,0,0-1.314,2.215v13.922a2.374,2.374,0,0,0,2.195,2.393h4.473a2.414,2.414,0,0,0,1.432-.512h.084a3.544,3.544,0,0,0,2.749,1.223h8.257a1.161,1.161,0,0,0,.871-.346,1.16,1.16,0,0,0,.331-.877,1.045,1.045,0,0,0-.047-.471,1.028,1.028,0,0,0-.251-.4,1.041,1.041,0,0,0-.873-.3Z" transform="translate(-127.895 -1555.646)"/></g></svg>