<svg xmlns="http://www.w3.org/2000/svg" width="47.044" height="67.125" viewBox="0 0 47.044 67.125"><defs><style>.a{fill:#fff;}</style></defs><path class="a" d="M-3696.271,4807.6a7.345,7.345,0,0,0-.362-.833c-.192-.4-.647-1.225-1.014-1.835l-1.811-3.022-.313.006a1.076,1.076,0,0,1-.41-.056.3.3,0,0,0-.216-.028.634.634,0,0,1-.258,0,.439.439,0,0,0-.279.06,2.449,2.449,0,0,1-.342.169,3.654,3.654,0,0,0-.385.18,2.253,2.253,0,0,1-.363.158.6.6,0,0,1-.366-.024,1.3,1.3,0,0,1-.317-.211c-.073-.069-.161-.154-.2-.189s-.143-.022-.236.027-.171.089-.171.089l-.079-3.921s0-.073,0-.162a.935.935,0,0,1,.027-.248.206.206,0,0,1,.084-.109.535.535,0,0,0,.1-.056.317.317,0,0,0,.073-.121.559.559,0,0,0,.029-.162.113.113,0,0,0-.088-.1.149.149,0,0,1-.1-.127.741.741,0,0,1,.018-.227l.029-.12.064-.054a.31.31,0,0,0,.071-.186c0-.071.008-.13.008-.13l-.043-.009a.277.277,0,0,0-.119.013.767.767,0,0,0-.171.09.5.5,0,0,0-.147.186.5.5,0,0,1-.211.2.621.621,0,0,0-.222.187.6.6,0,0,1-.212.188.723.723,0,0,0-.232.209,1.956,1.956,0,0,1-.189.242.38.38,0,0,1-.213.111.235.235,0,0,0-.16.069.321.321,0,0,1-.127.087.487.487,0,0,0-.169.165.658.658,0,0,1-.18.188c-.047.024-.137.081-.2.123a.414.414,0,0,1-.247.059.327.327,0,0,0-.193.025,11.918,11.918,0,0,1-1.357.06l-.194,0a5.574,5.574,0,0,1-1.294-.061.717.717,0,0,1,.039-.194.432.432,0,0,0-.027-.269.633.633,0,0,0-.2-.233.514.514,0,0,1-.164-.158.356.356,0,0,1,0-.194.224.224,0,0,0-.014-.171.751.751,0,0,1-.089-.172,1.645,1.645,0,0,0-.112-.223.486.486,0,0,0-.251-.156.757.757,0,0,0-.345-.006.689.689,0,0,1-.39-.056c-.125-.057-.281-.127-.347-.155a1.7,1.7,0,0,0-.357-.081,2.457,2.457,0,0,0-.539.023,4.206,4.206,0,0,1-.624.044c-.178,0-.32-.052-.315-.112a.157.157,0,0,1,.117-.131.278.278,0,0,0,.158-.176.359.359,0,0,1,.158-.2.227.227,0,0,0,.127-.133.345.345,0,0,1,.159-.164.317.317,0,0,0,.146-.229,1.056,1.056,0,0,0-.072-.355.811.811,0,0,0-.188-.287,1.76,1.76,0,0,1-.242-.254c-.073-.093-.188-.256-.256-.362a.777.777,0,0,0-.3-.263c-.1-.04-.237-.1-.315-.134a.269.269,0,0,1-.144-.224c0-.088,0-.225,0-.3a.254.254,0,0,0-.166-.212c-.1-.039-.247-.109-.337-.154a.62.62,0,0,1-.243-.3,1.485,1.485,0,0,0-.146-.3.588.588,0,0,1-.081-.258.513.513,0,0,0-.092-.257.65.65,0,0,1-.112-.235.2.2,0,0,0-.218-.135c-.1.007-.2-.039-.217-.1a1.784,1.784,0,0,1-.047-.192c-.007-.042.04-.1.1-.122a.314.314,0,0,0,.159-.143.243.243,0,0,0,0-.183.5.5,0,0,0-.283-.135.608.608,0,0,1-.338-.2,1.278,1.278,0,0,0-.22-.244,2.469,2.469,0,0,1-.219-.2c-.055-.059-.061-.122-.014-.141s.085-.035.085-.035l.083-.151a.254.254,0,0,0,0-.259.382.382,0,0,1-.09-.192c0-.048.047-.067.106-.046a.511.511,0,0,0,.28-.016,1.792,1.792,0,0,1,.312-.072.5.5,0,0,0,.225-.079.136.136,0,0,0,0-.184,1.561,1.561,0,0,1-.156-.276,1.165,1.165,0,0,0-.112-.213c-.024-.03-.044-.053-.044-.053l.081-.261a1.725,1.725,0,0,0,.078-.411.764.764,0,0,1,.2-.381,3.622,3.622,0,0,1,.508-.453c.17-.122.394-.291.5-.376a.7.7,0,0,1,.342-.158c.083,0,.209-.009.28-.017a.4.4,0,0,0,.234-.167,1.53,1.53,0,0,0,.165-.359.548.548,0,0,0-.04-.375,1.222,1.222,0,0,1-.125-.289.8.8,0,0,0-.1-.236.761.761,0,0,1-.1-.256,1.177,1.177,0,0,1,.056-.41,1.064,1.064,0,0,1,.24-.415,3.375,3.375,0,0,0,.306-.329,1.685,1.685,0,0,0,.209-.35,1.12,1.12,0,0,0,.058-.335.934.934,0,0,1,.026-.258.221.221,0,0,0-.014-.163.432.432,0,0,1,.048-.282,1.5,1.5,0,0,0,.111-.358,1.59,1.59,0,0,1,.039-.215.748.748,0,0,0,.018-.2.617.617,0,0,0-.037-.2c-.018-.041.019-.1.084-.121a1.246,1.246,0,0,0,.255-.156,1.481,1.481,0,0,1,.213-.145.964.964,0,0,1,.279-.038.343.343,0,0,0,.267-.113.607.607,0,0,1,.169-.175c.059-.038.174-.118.256-.178a2.946,2.946,0,0,1,.266-.177.222.222,0,0,0,.1-.2.181.181,0,0,1,.083-.175,1.225,1.225,0,0,1,.247-.069.991.991,0,0,0,.342-.169c.105-.079.268-.2.36-.276a3.153,3.153,0,0,1,.33-.222,1.7,1.7,0,0,0,.277-.2.471.471,0,0,1,.278-.113.4.4,0,0,0,.225-.069.21.21,0,0,1,.171-.046,2.651,2.651,0,0,0,.27.026,1.525,1.525,0,0,0,.291-.017.842.842,0,0,0,.192-.057.846.846,0,0,0,.128-.089.376.376,0,0,1,.226-.047c.088,0,.22.006.291,0a.224.224,0,0,0,.182-.1c.028-.053.065-.122.083-.152s.09-.007.163.052.154.056.183,0a.115.115,0,0,1,.171-.036.121.121,0,0,0,.172-.025.135.135,0,0,1,.171-.047c.066.029.134.033.151.008s.085-.031.15-.014.162-.048.212-.144a1.967,1.967,0,0,1,.2-.3.407.407,0,0,0,.1-.186.21.21,0,0,1,.094-.131.345.345,0,0,1,.258-.016c.09.028.182.006.2-.047a.227.227,0,0,1,.116-.121c.041-.013.086.025.1.083a.454.454,0,0,0,.068.161c.025.03.058.019.075-.023a.334.334,0,0,1,.083-.119c.029-.025.068-.006.086.041s.092.045.162,0a.53.53,0,0,1,.225-.09.243.243,0,0,1,.152.051.208.208,0,0,0,.173.018c.064-.019.119.042.121.137a.523.523,0,0,0,.081.268.667.667,0,0,0,.229.156.15.15,0,0,0,.2-.079c.028-.078.09-.143.138-.144a.172.172,0,0,1,.131.117.256.256,0,0,0,.187.136l.14.018.075-.066a.631.631,0,0,0,.113-.283l.039-.216-.152-.051a1.116,1.116,0,0,1-.316-.2c-.09-.082-.214-.185-.274-.232a.462.462,0,0,1-.144-.212,1.361,1.361,0,0,0-.124-.277.83.83,0,0,0-.177-.212,2.147,2.147,0,0,0-.261-.146.354.354,0,0,0-.271-.027,1.378,1.378,0,0,0-.159.111l-.063.055-.108.023a.522.522,0,0,1-.248-.027c-.077-.028-.209-.083-.293-.124l-.152-.072-.111-.106,2.338-3.839-.035-.1a.077.077,0,0,0-.12-.041.176.176,0,0,1-.183-.018,1.766,1.766,0,0,1-.187-.168,1.3,1.3,0,0,1-.144-.192.2.2,0,0,0-.2-.07c-.077.013-.121-.04-.1-.118s-.037-.1-.13-.05a.244.244,0,0,1-.271-.016,1.27,1.27,0,0,0-.241-.189.2.2,0,0,0-.247.038c-.058.066-.121.077-.14.024a.532.532,0,0,0-.155-.191,1.841,1.841,0,0,1-.2-.179,1,1,0,0,0-.2-.157.632.632,0,0,0-.216-.083.261.261,0,0,1-.165-.147c-.037-.077-.105-.109-.153-.072a.29.29,0,0,1-.226.025c-.078-.022-.14,0-.139.058a.426.426,0,0,1-.029.161c-.017.037-.095.048-.172.025a.243.243,0,0,0-.235.08.322.322,0,0,1-.181.123.723.723,0,0,0-.2.047c-.063.024-.132.032-.149.014s-.12,0-.226.047-.209.021-.228-.05a.624.624,0,0,0-.123-.223c-.048-.053-.111-.037-.14.034a.1.1,0,0,1-.161.046.232.232,0,0,1-.079-.213.08.08,0,0,0-.1-.1.5.5,0,0,1-.249-.028.259.259,0,0,0-.184-.017c-.035.018-.1-.035-.143-.117s-.116-.1-.162-.04a.5.5,0,0,1-.18.145.4.4,0,0,0-.169.186,1.9,1.9,0,0,1-.1.2.884.884,0,0,0-.073.152c-.023.06-.119.076-.214.037a.348.348,0,0,0-.323.05,1.166,1.166,0,0,0-.211.22.287.287,0,0,1-.257.069.308.308,0,0,0-.258.059c-.034.048-.087.068-.117.045a.19.19,0,0,0-.151-.008.173.173,0,0,1-.174-.061.319.319,0,0,0-.228-.092c-.083,0-.22,0-.3-.005a.712.712,0,0,1-.248-.059c-.054-.029-.145.026-.2.122s-.144.128-.193.069a.126.126,0,0,0-.184-.019c-.052.048-.11.05-.128,0a.056.056,0,0,0-.1-.02.992.992,0,0,1-.169.132.266.266,0,0,1-.249-.017.709.709,0,0,1-.209-.189.256.256,0,0,0-.164-.115.369.369,0,0,1-.163-.062,1.266,1.266,0,0,0-.2-.115.273.273,0,0,1-.144-.19.4.4,0,0,1,.071-.239.62.62,0,0,0,.1-.217.6.6,0,0,0-.049-.27,1.057,1.057,0,0,1-.071-.333.767.767,0,0,0-.083-.311c-.043-.076-.118-.2-.167-.277s-.112-.1-.141-.052a.079.079,0,0,1-.128.015c-.043-.041-.12-.021-.172.046a.113.113,0,0,1-.183.014.2.2,0,0,0-.2-.071.092.092,0,0,1-.121-.084.169.169,0,0,0-.164-.126.147.147,0,0,1-.133-.169,1.621,1.621,0,0,1,.07-.3.446.446,0,0,0-.027-.3,1.085,1.085,0,0,0-.167-.245.218.218,0,0,1-.059-.193.222.222,0,0,0-.09-.2,1.493,1.493,0,0,1-.231-.243.4.4,0,0,0-.219-.158.264.264,0,0,1-.163-.072c-.031-.035-.088-.024-.129.024a.15.15,0,0,1-.15.057.4.4,0,0,1-.142-.126.246.246,0,0,1-.015-.216c.028-.065-.041-.1-.153-.072s-.224.013-.248-.028a.244.244,0,0,0-.132-.094c-.048-.01-.088-.092-.09-.181a.136.136,0,0,0-.175-.126,1.141,1.141,0,0,1-.323.018.78.78,0,0,1-.227-.06.794.794,0,0,1-.187-.212.525.525,0,0,1-.083-.321.316.316,0,0,0-.081-.258.6.6,0,0,1-.145-.233,2.057,2.057,0,0,1-.049-.28,1.15,1.15,0,0,0-.115-.342.522.522,0,0,0-.23-.232,1,1,0,0,1-.262-.146c-.072-.059-.176-.147-.23-.2a.246.246,0,0,0-.164-.083.17.17,0,0,1-.13-.085.14.14,0,0,0-.163-.05c-.053.024-.1-.018-.1-.095a1.38,1.38,0,0,0-.038-.269.346.346,0,0,0-.166-.191.261.261,0,0,0-.237.016.326.326,0,0,1-.269.016.4.4,0,0,1-.208-.179.31.31,0,0,0-.187-.158.411.411,0,0,1-.185-.1.165.165,0,0,0-.12-.063.434.434,0,0,1-.185-.061.263.263,0,0,0-.194-.028.314.314,0,0,0-.138.142c-.028.061-.051.11-.051.11l-.17.078a1.073,1.073,0,0,1-.354.083.621.621,0,0,1-.314-.091.343.343,0,0,0-.228-.07.943.943,0,0,1-.226.014.113.113,0,0,0-.127.111c0,.065.075.131.164.147a.878.878,0,0,1,.284.113.564.564,0,0,1,.167.3,1.82,1.82,0,0,0,.126.364.677.677,0,0,0,.274.243,1.3,1.3,0,0,1,.317.22.415.415,0,0,1,.113.256.664.664,0,0,1-.071.239.515.515,0,0,0-.06.228.854.854,0,0,0,.07.268,3.7,3.7,0,0,1,.137.4c.038.135.07.246.07.246l-.087,0a1.406,1.406,0,0,0-.2.025.373.373,0,0,1-.215-.027l-.1-.053s-.034.017-.076.034a5.142,5.142,0,0,0-.29,1.063,5.947,5.947,0,0,1-1.023,2.038l-.257.324a16.313,16.313,0,0,1-1.082,1.253c-.152.132-.644.506-1.094.83a11.407,11.407,0,0,1-1.042.689c-.124.056-.359.157-.523.226s-.458.176-.652.24l-.6.195c-.136.044-.392.137-.567.205s-.5.2-.716.284-.517.215-.664.284l-.267.124-.2.1a1.456,1.456,0,0,0-.33.233,3.917,3.917,0,0,0-.335.459,2.952,2.952,0,0,1-.378.481.214.214,0,0,0-.059.282.178.178,0,0,1,.036.214,2.319,2.319,0,0,1-.18.188c-.058.054-.117.007-.131-.106s-.064-.2-.112-.19a.68.68,0,0,0-.171.057.424.424,0,0,0-.113.271,4.175,4.175,0,0,0-.021.485.975.975,0,0,1-.089.422,3.574,3.574,0,0,1-.262.372,3.561,3.561,0,0,0-.22.3.746.746,0,0,0-.037.324.769.769,0,0,1-.037.325,2.062,2.062,0,0,0-.1.206,2.923,2.923,0,0,0-.1.3,1.153,1.153,0,0,1-.1.26.392.392,0,0,0-.028.237.318.318,0,0,0,.123.214.078.078,0,0,1,.023.129.52.52,0,0,0-.1.2.391.391,0,0,1-.147.2l-.118.079-.171.057a1.225,1.225,0,0,0-.351.223.545.545,0,0,0-.176.337.362.362,0,0,0,.081.236c.042.035.053.083.023.108a.424.424,0,0,1-.2.047.171.171,0,0,0-.158.165.614.614,0,0,1-.081.27.2.2,0,0,1-.181.091c-.06-.01-.177-.038-.261-.059a1.439,1.439,0,0,0-.324-.038l-.171,0-.176-.158a1.4,1.4,0,0,0-.295-.21.4.4,0,0,1-.176-.18c-.031-.07-.092-.228-.136-.353a1.506,1.506,0,0,1-.083-.354c0-.071,0-.184.006-.248a.119.119,0,0,0-.11-.127.684.684,0,0,1-.294-.167.319.319,0,0,0-.3-.091c-.07.038-.2.1-.288.135a.287.287,0,0,1-.227.017c-.036-.029-.12-.1-.186-.159a.53.53,0,0,0-.272-.114.385.385,0,0,1-.229-.091c-.042-.046-.136-.142-.209-.213a.512.512,0,0,0-.25-.133.41.41,0,0,0-.236.08,1.433,1.433,0,0,0-.252.307,1.4,1.4,0,0,1-.306.34.476.476,0,0,1-.311.093.31.31,0,0,1-.2-.168.383.383,0,0,1,.068-.314c.069-.1.187-.268.262-.382s.1-.217.06-.228a.394.394,0,0,0-.225.069c-.083.049-.171-.008-.2-.126s-.059-.286-.073-.375-.024-.161-.024-.161l.074-.077a.491.491,0,0,1,.181-.111.489.489,0,0,1,.27.026.351.351,0,0,0,.312-.06c.082-.067.21-.172.286-.233a.263.263,0,0,0,.1-.239.523.523,0,0,0-.123-.213.516.516,0,0,1-.1-.278c-.007-.107-.015-.232-.016-.28a.491.491,0,0,0-.036-.161.421.421,0,0,1-.025-.172.3.3,0,0,0-.057-.182.351.351,0,0,1-.067-.183c0-.053-.071-.128-.155-.168l-.152-.073-.03.119a.459.459,0,0,1-.114.2.532.532,0,0,1-.225.1c-.076.013-.177.035-.225.047a.226.226,0,0,0-.117.078c-.018.029-.074.119-.126.2a.891.891,0,0,1-.222.221c-.07.042-.181.1-.245.134a2.183,2.183,0,0,0-.256.156.98.98,0,0,0-.222.241,2.259,2.259,0,0,0-.144.315.578.578,0,0,1-.178.252,1.974,1.974,0,0,0-.223.177.827.827,0,0,0-.167.251l-.062.152-.1.066a.934.934,0,0,0-.2.242,1.428,1.428,0,0,1-.306.329.718.718,0,0,0-.228.446,1.022,1.022,0,0,1-.068.336.156.156,0,0,0-.041.1c0,.029.012.131.026.226a.792.792,0,0,1-.026.313,2.172,2.172,0,0,0-.071.229.185.185,0,0,0,.068.16,2.939,2.939,0,0,1,.22.221c.073.082.187.2.253.265a3.3,3.3,0,0,1,.254.286,1.806,1.806,0,0,1,.167.244.255.255,0,0,1,0,.162.179.179,0,0,1-.138.1,1.237,1.237,0,0,0-.14.024c-.018.006-.026.074-.019.15a.513.513,0,0,1-.028.227.339.339,0,0,0,.081.258.827.827,0,0,0,.231.222.909.909,0,0,1,.2.136c.048.047.157.142.242.211a1.293,1.293,0,0,1,.253.307,2.714,2.714,0,0,1,.169.4,1.859,1.859,0,0,1,.074.44.819.819,0,0,1-.089.379.514.514,0,0,1-.233.2.467.467,0,0,1-.269,0,1.031,1.031,0,0,0-.228-.061.259.259,0,0,0-.182.09.442.442,0,0,0-.093.185.428.428,0,0,1-.05.152.362.362,0,0,0,.015.237,1.993,1.993,0,0,1,.069.256c.008.048.116.127.242.179s.359.139.521.194.445.171.63.257l.521.237.185.083.2.125c.108.068.318.186.469.259s.38.2.512.28a2.3,2.3,0,0,0,.446.207,1.208,1.208,0,0,1,.381.218,3.031,3.031,0,0,0,.308.243.77.77,0,0,1,.222.308.87.87,0,0,0,.188.3,2.982,2.982,0,0,1,.264.242c.09.093.2.212.253.265a1.247,1.247,0,0,1,.166.254l.079.16.143.17a1.732,1.732,0,0,1,.235.394,2.08,2.08,0,0,1,.115.4.786.786,0,0,0,.147.321c.067.081.191.243.277.361a.572.572,0,0,1,.134.266.667.667,0,0,0,.113.279c.075.122.219.337.322.478a1.547,1.547,0,0,0,.353.348l.273.157a1.324,1.324,0,0,1,.252.221,2.95,2.95,0,0,0,.275.264,1.476,1.476,0,0,1,.231.243,2.476,2.476,0,0,1,.189.33.839.839,0,0,1,.082.323.4.4,0,0,0,.124.256,1.921,1.921,0,0,0,.295.22.494.494,0,0,1,.2.32.843.843,0,0,1,0,.333.443.443,0,0,0,.1.311,1.4,1.4,0,0,1,.179.33c.019.071.035.128.035.128l.068.149c.037.082.088.2.113.256a1.368,1.368,0,0,0,.079.162.843.843,0,0,1,.048.257c.008.111.067.159.131.1a.124.124,0,0,1,.183,0,.2.2,0,0,1,.024.182.221.221,0,0,0,.037.194.563.563,0,0,0,.165.147.34.34,0,0,1,.133.191c.026.082.083.28.128.439a1.851,1.851,0,0,0,.27.534l.276.361a.764.764,0,0,1,.083.386.862.862,0,0,0,.139.46.974.974,0,0,1,.168.341.579.579,0,0,0,.124.256.905.905,0,0,1,.157.277,2.488,2.488,0,0,0,.168.363c.062.105.167.268.234.362s.176.241.244.328.121.16.121.16l.079.15a2.336,2.336,0,0,0,.266.361,3.608,3.608,0,0,1,.287.372,1.888,1.888,0,0,1,.169.4,2.71,2.71,0,0,0,.148.384,2.187,2.187,0,0,1,.136.353.977.977,0,0,1,.04.323.3.3,0,0,1-.062.152c-.023.018-.021.081,0,.14a.36.36,0,0,0,.165.158c.066.029.168.075.228.1s.192.1.294.155.225.127.272.156.167.1.263.167a.484.484,0,0,1,.2.244.3.3,0,0,0,.089.171.372.372,0,0,1,.111.16,2.41,2.41,0,0,1,.081.268c.019.082.051.217.071.3a1.552,1.552,0,0,0,.091.269,1.563,1.563,0,0,1,.092.278.4.4,0,0,1-.038.269.558.558,0,0,1-.191.165l-.181.09c-.036.019-.035.057,0,.086a.307.307,0,0,0,.174.05.7.7,0,0,0,.214-.047.345.345,0,0,1,.238.017.345.345,0,0,1,.166.19.372.372,0,0,0,.2.2,1.972,1.972,0,0,1,.35.22,2.572,2.572,0,0,1,.3.274.546.546,0,0,1,.114.3.613.613,0,0,0,.2.351.8.8,0,0,1,.221.3.334.334,0,0,0,.09.17.322.322,0,0,1,.089.16.4.4,0,0,0,.09.171.892.892,0,0,0,.163.115.635.635,0,0,1,.153.115.491.491,0,0,1,.069.225,2.374,2.374,0,0,1,.006.291.58.58,0,0,0,.168.32c.1.105.246.262.33.349s.233.23.33.317a2.1,2.1,0,0,1,.163.169,1.47,1.47,0,0,1,.124.159.714.714,0,0,1,.114.278c0,.059,0,.219,0,.356s-.01.33-.014.431a1.652,1.652,0,0,1-.047.324c-.021.077-.058.214-.08.3s-.069.145-.105.121-.066-.056-.066-.074-.031-.041-.066-.052a.18.18,0,0,0-.139.036.342.342,0,0,0-.1.164.111.111,0,0,0,.077.137.719.719,0,0,0,.174.029c.035,0,.085.065.11.149s.062.2.081.256a.241.241,0,0,1-.018.184.333.333,0,0,0-.05.174.653.653,0,0,0,.024.162c.013.035.042.039.065.009s.1-.012.163.041.175.127.241.167a.289.289,0,0,1,.133.158.5.5,0,0,1-.008.163.2.2,0,0,0,.024.14.251.251,0,0,0,.121.083.232.232,0,0,1,.12.095.5.5,0,0,0,.122.127.446.446,0,0,1,.123.2.449.449,0,0,0,.122.2.35.35,0,0,1,.112.17.991.991,0,0,0,.09.2.176.176,0,0,0,.11.083c.029,0,.089.051.131.116a.754.754,0,0,0,.231.2c.083.045.221.116.3.156a2.379,2.379,0,0,0,.293.112.741.741,0,0,1,.251.146c.061.059.174.172.253.254a2.707,2.707,0,0,1,.265.339c.067.1.147.225.177.266a.253.253,0,0,0,.153.084.345.345,0,0,1,.163.062.783.783,0,0,1,.133.148c.036.053.052.114.035.139s.013.071.066.106a1.289,1.289,0,0,1,.165.126.128.128,0,0,1-.008.161c-.04.054-.009.122.068.149a3.27,3.27,0,0,1,.3.135c.09.045.237.11.327.144a2.873,2.873,0,0,1,.315.145c.084.045.2.1.25.124s.191.093.306.156a5.289,5.289,0,0,0,.522.237,2.371,2.371,0,0,1,.424.208c.06.046.173.146.252.22a.709.709,0,0,0,.327.167.515.515,0,0,1,.261.114.328.328,0,0,0,.217.082.843.843,0,0,1,.335.1.836.836,0,0,1,.263.209,1.9,1.9,0,0,0,.341.317c.151.115.4.291.558.388a.96.96,0,0,0,.445.163.942.942,0,0,1,.346.059,3.012,3.012,0,0,0,.379.11,1.069,1.069,0,0,1,.293.1,1.783,1.783,0,0,1,.2.158,1,1,0,0,0,.295.167c.107.039.381.161.608.268a4.362,4.362,0,0,0,.544.226,1.022,1.022,0,0,1,.305.167.838.838,0,0,0,.37.154,2.852,2.852,0,0,1,.466.1c.148.044.354.107.455.141a2.5,2.5,0,0,1,.3.124.641.641,0,0,1,.208.211.635.635,0,0,1,.091.214c0,.035.074.078.164.094a.757.757,0,0,1,.327.2,2.287,2.287,0,0,0,.329.274.977.977,0,0,0,.283.124.677.677,0,0,1,.262.146c.078.07.2.165.263.211a1.415,1.415,0,0,0,.326.143c.114.034.274.075.358.09a.616.616,0,0,1,.228.093,1.358,1.358,0,0,0,.2.125l.12.062.131.105a.971.971,0,0,1,.222.308,1.418,1.418,0,0,1,.1.385,3.214,3.214,0,0,0,.062.388.441.441,0,0,0,.146.255c.054.028.167.084.25.125s.152.071.152.071l.077.1a1.373,1.373,0,0,0,.22.2,1.535,1.535,0,0,0,.294.168,2.785,2.785,0,0,0,.271.092.508.508,0,0,1,.231.21.592.592,0,0,0,.23.222,1.019,1.019,0,0,1,.3.23,2.432,2.432,0,0,0,.329.3.722.722,0,0,0,.261.113.514.514,0,0,1,.229.113,3.262,3.262,0,0,1,.242.244l.122.138.118-.035a1.725,1.725,0,0,1,.409-.018,1.233,1.233,0,0,0,.516-.1,1.335,1.335,0,0,1,.353-.126.369.369,0,0,0,.223-.156,1.179,1.179,0,0,1,.189-.219,1.249,1.249,0,0,0,.169-.176,1.2,1.2,0,0,0,.115-.2,1.415,1.415,0,0,1,.1-.2.322.322,0,0,0-.005-.259,2.808,2.808,0,0,1-.115-.352,1.561,1.561,0,0,0-.1-.3.347.347,0,0,1-.026-.215.351.351,0,0,1,.147-.175.394.394,0,0,1,.247-.037.351.351,0,0,0,.267-.1c.075-.073.224-.2.329-.286l.191-.156,0-.172a2.1,2.1,0,0,0-.027-.291.436.436,0,0,0-.155-.213,1.341,1.341,0,0,0-.208-.124l-.075-.031.007-.152a.405.405,0,0,1,.167-.261c.087-.061.193-.131.233-.155a1.016,1.016,0,0,1,.172-.079.466.466,0,0,0,.169-.123.391.391,0,0,0,.084-.163.958.958,0,0,1,.145-.272,2.269,2.269,0,0,1,.3-.34,1.422,1.422,0,0,0,.189-.2,1.113,1.113,0,0,0,.072-.2.314.314,0,0,1,.147-.186c.058-.025.174-.076.256-.114a.22.22,0,0,0,.125-.218,1.655,1.655,0,0,1-.006-.344.725.725,0,0,1,.133-.337,1.089,1.089,0,0,1,.351-.244c.13-.056.239-.166.243-.243a.128.128,0,0,0-.131-.137.367.367,0,0,1-.24-.1.485.485,0,0,0-.271-.124,1.085,1.085,0,0,0-.28,0,.345.345,0,0,1-.206-.027.636.636,0,0,1-.187-.2c-.049-.082-.119-.211-.156-.288s-.14-.326-.227-.556-.216-.582-.285-.781a.766.766,0,0,1-.022-.527.919.919,0,0,0,.123-.336.4.4,0,0,1,.125-.251.607.607,0,0,0,.168-.241.573.573,0,0,1,.22-.251.667.667,0,0,0,.191-.144c.018-.031-.028-.106-.1-.171s-.185-.159-.252-.21a1.235,1.235,0,0,1-.232-.287,1.192,1.192,0,0,0-.177-.245.237.237,0,0,1-.036-.2,2.449,2.449,0,0,0,.023-.4c0-.136.058-.249.135-.25a.327.327,0,0,0,.224-.112.559.559,0,0,0,.08-.3.229.229,0,0,1,.135-.229.2.2,0,0,0,.137-.187.432.432,0,0,1,.156-.283,1.594,1.594,0,0,1,.319-.2.145.145,0,0,0,.093-.2.553.553,0,0,1-.027-.312c.021-.1.093-.186.159-.186s.176-.008.247-.017.113-.105.093-.217a2.522,2.522,0,0,0-.093-.354.679.679,0,0,0-.178-.245,1.319,1.319,0,0,1-.154-.137.467.467,0,0,1-.037-.193.6.6,0,0,0-.058-.246.5.5,0,0,1-.049-.237.305.305,0,0,0-.09-.224.378.378,0,0,1-.111-.137.23.23,0,0,1,.063-.141c.041-.049.131-.153.2-.231a.622.622,0,0,0,.133-.337c0-.106-.015-.548-.042-.98s-.048-.785-.048-.785.009-.078.018-.174a.765.765,0,0,0-.016-.268c-.019-.054.028-.132.1-.174a.746.746,0,0,0,.221-.21.456.456,0,0,1,.2-.166.727.727,0,0,0,.213-.111.147.147,0,0,0,.062-.152c-.019-.041-.049-.1-.067-.139s.009-.1.062-.142a.881.881,0,0,0,.148-.154A.311.311,0,0,0-3696.271,4807.6Z" transform="translate(3743.313 -4762.123)"/></svg>