<svg xmlns="http://www.w3.org/2000/svg" width="34.792" height="49.026" viewBox="0 0 34.792 49.026"><defs><style>.a{fill:#fff;}</style></defs><path class="a" d="M-3557.261,2398.358c.03,0,.058.007.089.007s.058-.007.088-.007Zm13.438,20.625v-7.188a13.436,13.436,0,0,0-13.349-13.429,13.435,13.435,0,0,0-13.349,13.429v6.046h3.752v-4.435c0-5.839,4.292-10.568,9.6-10.607-.022,0-.044-.008-.066-.008h.13c-.021,0-.043.008-.064.008,5.3.039,9.6,4.769,9.6,10.607v5.577h-27.042v28.4h34.792v-28.4Zm-11.729,12.722v10.075h-3.665v-10.208a3.776,3.776,0,0,1-1.832-3.229,3.786,3.786,0,0,1,3.786-3.786,3.787,3.787,0,0,1,3.787,3.786A3.775,3.775,0,0,1-3555.553,2431.706Z" transform="translate(3574.618 -2398.358)"/></svg>