<svg xmlns="http://www.w3.org/2000/svg" width="55.328" height="55.33" viewBox="0 0 55.328 55.33"><defs><style>.a{fill:#fff;}</style></defs><path class="a" d="M-3399.871,2878.021a27.7,27.7,0,0,0-27.663,27.666,27.7,27.7,0,0,0,27.663,27.664,27.7,27.7,0,0,0,27.665-27.664A27.7,27.7,0,0,0-3399.871,2878.021Zm0,51.883a24.244,24.244,0,0,1-24.216-24.216,24.237,24.237,0,0,1,13.5-21.711,9.8,9.8,0,0,0-.731.805s-4.271,3.508-3.661,8.544a60.392,60.392,0,0,0,1.984,9.461l.151-5.037s1.985,4.427,3.511,5.8,2.136,2.6,3.357,2.6,4.12,2.746,4.12,2.746v2.137s-1.678.3,1.374,2.746,2.594,3.2,3.2,6.256-.457,8.7-.457,8.7,4.884-4.882,5.188-7.018.611-4.272,1.069-4.731,3.2-4.575,1.068-5.034-5.493-1.679-5.493-2.442-.459-1.678-1.221-1.678-1.526.305-2.443-.307a13.1,13.1,0,0,1-2.135-1.677c-.611-.611-2.747-.916-3.815-2.595s-2.442-5.189,1.678-2.9,4.121,3.358,4.121,2.29V2897.9s.915-1.526,1.374-1.526,2.441-2.6,2.441-2.6a23.561,23.561,0,0,1-.305-2.744,10.7,10.7,0,0,1,.915-3.509,24.058,24.058,0,0,0,1.069-2.747l-1.179-2.895a24.246,24.246,0,0,1,14.3,8.519c-.013.259-.017.566,0,.936,0,0,.459,2.747-.3,3.357s-4.12,2.441-.916,3.968,4.882,2.442,4.578.458-1.373-3.357.3-2.441l.058.031a24.1,24.1,0,0,1,1.729,8.973A24.245,24.245,0,0,1-3399.871,2929.9Z" transform="translate(3427.534 -2878.021)"/></svg>