<svg xmlns="http://www.w3.org/2000/svg" width="63.222" height="45.129" viewBox="0 0 63.222 45.129"><defs><style>.a{fill:#fff;}</style></defs><path class="a" d="M1371.278,1579.812l-4.942,1.647L1360.7,1565.1l4.942-1.647Zm3.542.478-6.672-19.472a1.648,1.648,0,0,0-2.026-.989l-7.891,2.751a1.682,1.682,0,0,0-.3.132l-1.252.445a3.466,3.466,0,0,1-2.751-.165l-.774-.379a6.869,6.869,0,0,0-5.173-.313l-14.513,4.942a1.644,1.644,0,0,0-1.071,1.549,6.307,6.307,0,0,0,2.323,4.695,5.583,5.583,0,0,0,5.205.363l4.069-1.384a10.219,10.219,0,0,0,13.426,5.371,1.647,1.647,0,0,0-.972-2.949,7.763,7.763,0,0,1-6.342,0,8.4,8.4,0,0,1-3.657-4.843,1.645,1.645,0,0,0-.774-.989,1.546,1.546,0,0,0-1.268-.1l-5.519,1.862a2.681,2.681,0,0,1-2.372,0,2.35,2.35,0,0,1-.725-1.087l13.179-4.563a3.633,3.633,0,0,1,2.718.165l.774.379a6.76,6.76,0,0,0,5.222.3l6.128,17.907a1.65,1.65,0,0,0,2.026,1.005l7.957-2.735a1.549,1.549,0,0,0,.939-.61,1.634,1.634,0,0,0,.171-.634A1.651,1.651,0,0,0,1374.82,1580.289Z" transform="translate(-1311.69 -1559.755)"/><path class="a" d="M1336.09,1567.782l-7.743,15.782-4.827-2.389,7.792-15.733Zm33.129,16.82-5.618-2.685a1.6,1.6,0,1,0-1.483,2.833l5.766,2.718a.872.872,0,0,1,.4,1.137.906.906,0,0,1-1.17.4l-10.576-5.124a1.649,1.649,0,0,0-2.141.725,1.5,1.5,0,0,0-.171.6,1.513,1.513,0,0,0,.089.618,1.645,1.645,0,0,0,.807.906l12.026,5.831a.9.9,0,0,1,.445.478.816.816,0,0,1,0,.659.905.905,0,0,1-1.17.4l-13.36-6.409a1.588,1.588,0,1,0-1.4,2.85l11.8,5.7a.871.871,0,0,1,.445.494.772.772,0,0,1-.2.923.821.821,0,0,1-.29.165.878.878,0,0,1-.675,0l-12.108-5.865a1.6,1.6,0,1,0-1.417,2.866l8.237,3.97a.876.876,0,0,1,.445.494.8.8,0,0,1-.494,1.087.877.877,0,0,1-.675,0L1342,1593.25a35.495,35.495,0,0,1-8.237-5.618l-2.735-2.422,8.665-17.462a1.694,1.694,0,0,0-.824-2.125l-7.594-3.723a1.55,1.55,0,0,0-1.235,0,1.652,1.652,0,0,0-.939.807l-9.159,18.5a1.722,1.722,0,0,0,.824,2.141l7.479,3.608,3.295,2.949a38.2,38.2,0,0,0,9.094,6.128l14.711,7.117a4.021,4.021,0,0,0,1.8.428,3.875,3.875,0,0,0,1.318-.231,4.028,4.028,0,0,0,2.356-2.043,6.975,6.975,0,0,0,.3-.807l.28.132a4.084,4.084,0,0,0,3.113.2,4.024,4.024,0,0,0,2.356-2.043,4.583,4.583,0,0,0,.4-1.466,4.119,4.119,0,0,0,3.295-2.224,4.042,4.042,0,0,0-.181-3.871,3.8,3.8,0,0,0,.906-1.2,3.937,3.937,0,0,0,.214-3.081,4.026,4.026,0,0,0-2.273-2.339Z" transform="translate(-1319.829 -1558.45)"/></svg>