<svg xmlns="http://www.w3.org/2000/svg" width="51.361" height="54.242" viewBox="0 0 51.361 54.242"><defs><style>.a{fill:#21409a;}</style></defs><g transform="translate(-65.078 -297.744)"><path class="a" d="M115.379,349.867h-2.323V316.128a2.851,2.851,0,0,0-2.849-2.847h-5.193a2.85,2.85,0,0,0-2.848,2.847v33.739h-5.9V331.415a2.851,2.851,0,0,0-2.848-2.848H88.224a2.851,2.851,0,0,0-2.848,2.848v18.452h-5.9v-9.556a2.851,2.851,0,0,0-2.848-2.848H71.435a2.851,2.851,0,0,0-2.849,2.848v9.556H66.137a1.059,1.059,0,0,0,0,2.119h49.242a1.059,1.059,0,1,0,0-2.119Zm-38.022,0H70.705v-9.556a.731.731,0,0,1,.729-.73h5.194a.731.731,0,0,1,.729.73Zm16.79,0H87.5V331.415a.73.73,0,0,1,.729-.73h5.194a.73.73,0,0,1,.729.73Zm16.79,0h-6.652V316.128a.73.73,0,0,1,.729-.729h5.193a.73.73,0,0,1,.73.729Zm0,0"/><path class="a" d="M113.053,298.858a1.057,1.057,0,0,0-1.112-1.112l-.051,0h-6.409a1.059,1.059,0,1,0,0,2.118h3.957L98.965,310.336l-3.949-3.95a1.061,1.061,0,0,0-1.5,0L74.472,325.431a1.06,1.06,0,1,0,1.5,1.5l18.295-18.3,3.95,3.95a1.06,1.06,0,0,0,1.5,0l11.222-11.223v3.583a1.06,1.06,0,0,0,2.119,0v-6.034c0-.018,0-.034,0-.051Zm0,0"/><path class="a" d="M72.71,329.877a1.059,1.059,0,1,1-1.059-1.06,1.059,1.059,0,0,1,1.059,1.06Zm0,0"/></g></svg>