<svg xmlns="http://www.w3.org/2000/svg" width="43.873" height="54.242" viewBox="0 0 43.873 54.242"><defs><style>.a{fill:#21409a;}</style></defs><g transform="translate(-387.305 -297.744)"><path class="a" d="M428.34,301.961H414.411a5.277,5.277,0,0,0-10.339,0H390.143A2.841,2.841,0,0,0,387.3,304.8v30.148a2.841,2.841,0,0,0,2.838,2.838h13.232l-4.3,12.8a1.061,1.061,0,0,0,.667,1.342,1.076,1.076,0,0,0,.337.055,1.058,1.058,0,0,0,1-.723l4.525-13.478h7.262l4.523,13.478a1.06,1.06,0,0,0,1,.723,1.073,1.073,0,0,0,.338-.055,1.06,1.06,0,0,0,.667-1.342l-4.3-12.8H428.34a2.841,2.841,0,0,0,2.838-2.838V304.8a2.841,2.841,0,0,0-2.838-2.838Zm-19.1-2.1a3.164,3.164,0,0,1,2.975,2.1h-5.95a3.162,3.162,0,0,1,2.975-2.1Zm19.817,35.084a.72.72,0,0,1-.719.719h-2.767v-15.1a1.059,1.059,0,1,0-2.119,0v15.1H420.2V323.8a1.06,1.06,0,0,0-2.119,0v11.863H415.1v-8.4a1.06,1.06,0,1,0-2.119,0v8.4H410.3v-11.09a1.059,1.059,0,0,0-2.119,0v11.09h-3.076v-5.83a1.059,1.059,0,0,0-2.119,0v5.83h-2.46v-5.4a1.06,1.06,0,0,0-2.119,0v5.4h-2.837V331.5a1.06,1.06,0,0,0-2.119,0v4.168h-3.309a.72.72,0,0,1-.719-.719V304.8a.72.72,0,0,1,.719-.719h38.2a.72.72,0,0,1,.719.719Zm0,0"/><path class="a" d="M425.568,309.067c0-.014-.005-.028-.006-.043l-.009-.059-.012-.05c0-.017-.009-.034-.014-.051s-.011-.031-.016-.047-.012-.034-.019-.051-.013-.029-.02-.043-.015-.034-.024-.051l-.024-.039c-.01-.017-.019-.033-.03-.049s-.02-.028-.03-.042l-.031-.042c-.019-.023-.04-.044-.06-.066l-.01-.011-.01-.009a.78.78,0,0,0-.068-.061c-.013-.01-.026-.02-.04-.029s-.028-.023-.043-.033-.031-.019-.047-.028l-.042-.025a.5.5,0,0,0-.047-.022l-.047-.023-.045-.016-.053-.019-.044-.011-.057-.014-.049-.007-.053-.008c-.029,0-.057,0-.086,0h-4.6a1.059,1.059,0,0,0,0,2.119h2.019l-8.8,8.8-2.309-2.31a1.061,1.061,0,0,0-1.5,0l-7.645,7.645-2.282-2.282a1.06,1.06,0,0,0-1.5,0l-3.866,3.866a1.059,1.059,0,1,0,1.5,1.5l3.117-3.116,2.282,2.282a1.06,1.06,0,0,0,1.5,0l7.646-7.645,2.309,2.309a1.06,1.06,0,0,0,1.5,0l9.545-9.545v2.018a1.059,1.059,0,1,0,2.119,0v-4.575c0-.036,0-.071-.005-.106Zm0,0"/><path class="a" d="M395.87,309.172a1.059,1.059,0,1,1-1.06-1.059,1.06,1.06,0,0,1,1.06,1.059Zm0,0"/><path class="a" d="M395.87,313.491a1.059,1.059,0,1,1-1.06-1.06,1.06,1.06,0,0,1,1.06,1.06Zm0,0"/><path class="a" d="M395.87,317.81a1.059,1.059,0,1,1-1.06-1.059,1.061,1.061,0,0,1,1.06,1.059Zm0,0"/></g></svg>