<svg xmlns="http://www.w3.org/2000/svg" width="54.242" height="47.848" viewBox="0 0 54.242 47.848"><defs><style>.a{fill:#21409a;}</style></defs><g transform="translate(-303.551 -221.199)"><path class="a" d="M352.986,238.323a1.059,1.059,0,1,1-1.06-1.06,1.059,1.059,0,0,1,1.06,1.06Zm0,0"/><path class="a" d="M324.969,244.474a1.059,1.059,0,1,1-1.059-1.06,1.059,1.059,0,0,1,1.059,1.06Zm0,0"/><path class="a" d="M354.637,226.309H346.4a6.168,6.168,0,0,0-12.153,0h-8.239a3.16,3.16,0,0,0-3.156,3.157V234.8h-5.9a5.022,5.022,0,1,0-7.554.732,9.326,9.326,0,0,0-5.85,8.578V252a4.709,4.709,0,0,0,4.254,4.633v10.294h-2.65a1.059,1.059,0,1,0,0,2.119h50.579a1.059,1.059,0,1,0,0-2.119h-7.96l-3.036-9.045h9.9a3.16,3.16,0,0,0,3.156-3.156V229.466a3.159,3.159,0,0,0-3.156-3.157Zm-14.315-2.991a4.058,4.058,0,0,1,3.91,2.991h-7.82a4.058,4.058,0,0,1,3.91-2.991Zm-27.461,5.677a2.9,2.9,0,1,1-2.9,2.9,2.906,2.906,0,0,1,2.9-2.9Zm3.589,11.311v26.622h-2.2v-11.91a1.059,1.059,0,0,0-2.119,0v11.91h-2.2V244.385a1.06,1.06,0,1,0-2.119,0v10.109A2.577,2.577,0,0,1,305.67,252V244.11a7.331,7.331,0,0,1,7.448-7.191h19.469a3.391,3.391,0,0,1-3.216,2.327H317.509a1.059,1.059,0,0,0-1.059,1.06Zm29.089,26.622h-9.728l3.036-9.045H342.5Zm10.136-12.2a1.039,1.039,0,0,1-1.038,1.037h-28.63a1.039,1.039,0,0,1-1.037-1.037v-6.2a1.059,1.059,0,1,0-2.119,0v6.2a3.16,3.16,0,0,0,3.156,3.156h10.6l-3.036,9.045H318.569V241.365h10.8a5.511,5.511,0,0,0,5.505-5.505,1.06,1.06,0,0,0-1.06-1.06H324.97v-5.334a1.039,1.039,0,0,1,1.037-1.038h28.63a1.04,1.04,0,0,1,1.038,1.038Zm0,0"/><path class="a" d="M349.438,240.81a1.059,1.059,0,0,0-1.5,0l-4.537,4.538-1.656-1.655a1.059,1.059,0,0,0-1.5,0l-5.85,5.849-1.634-1.633a1.057,1.057,0,0,0-1.5,0l-3.039,3.039a1.06,1.06,0,0,0,1.5,1.5l2.289-2.29,1.634,1.634a1.062,1.062,0,0,0,1.5,0L341,245.94l1.655,1.655a1.06,1.06,0,0,0,1.5,0l5.286-5.287a1.059,1.059,0,0,0,0-1.5Zm0,0"/></g></svg>