<svg xmlns="http://www.w3.org/2000/svg" width="53.149" height="54.243" viewBox="0 0 53.149 54.243"><defs><style>.a{fill:#21409a;}</style></defs><g transform="translate(-223.22 -138.388)"><path class="a" d="M263.646,138.39l-.18,0H228.85a5.637,5.637,0,0,0-5.63,5.586v44.688a3.974,3.974,0,0,0,3.969,3.969h28.82a3.973,3.973,0,0,0,3.968-3.969v-33.1h6.518a2.626,2.626,0,0,0,2.623-2.622v-8.822a5.717,5.717,0,0,0-5.472-5.723Zm-5.787,5.584v44.688a1.852,1.852,0,0,1-1.85,1.85h-28.82a1.852,1.852,0,0,1-1.85-1.85V144.018a3.515,3.515,0,0,1,3.511-3.511h30.236a5.574,5.574,0,0,0-1.227,3.467Zm9.14,8.961a.5.5,0,0,1-.5.5h-6.518v-9.42a3.509,3.509,0,0,1,3.5-3.511h.109A3.584,3.584,0,0,1,267,144.113Zm0,0"/><path class="a" d="M237.262,144.6a8.377,8.377,0,1,0,8.377,8.376,8.385,8.385,0,0,0-8.377-8.376Zm0,14.634a6.258,6.258,0,1,1,6.258-6.258,6.264,6.264,0,0,1-6.258,6.258Zm0,0"/><path class="a" d="M237.262,154.444a1.473,1.473,0,0,1,0-2.946,1.059,1.059,0,1,0,0-2.118,3.591,3.591,0,0,0,0,7.183,1.06,1.06,0,1,0,0-2.119Zm0,0"/><path class="a" d="M252.393,165.469H229.945a1.06,1.06,0,0,0,0,2.119h22.448a1.06,1.06,0,0,0,0-2.119Zm0,0"/><path class="a" d="M252.393,169.961H229.945a1.059,1.059,0,1,0,0,2.118h22.448a1.059,1.059,0,0,0,0-2.118Zm0,0"/><path class="a" d="M241.6,174.7H229.945a1.06,1.06,0,0,0,0,2.119H241.6a1.06,1.06,0,0,0,0-2.119Zm0,0"/><path class="a" d="M273.4,177.167v-3.184l1.789-3.5a1.062,1.062,0,0,0,.005-.956l-4.662-9.333a1.058,1.058,0,0,0-.948-.587h0a1.058,1.058,0,0,0-.947.59l-4.662,9.414a1.06,1.06,0,0,0,.01.961l1.787,3.419v3.177a3.793,3.793,0,0,0-2.973,3.7c0,.036,0,.07.005.1l1.066,10.707a1.06,1.06,0,0,0,1.054.955h9.324a1.059,1.059,0,0,0,1.054-.955l1.068-10.707c0-.034,0-.069,0-.1a3.793,3.793,0,0,0-2.973-3.7Zm-4.876-11.974v4.426a1.06,1.06,0,0,0,2.119,0v-4.461l2.416,4.836-1.368,2.675h-4.221l-1.359-2.6Zm2.757,9.6v2.29h-3.393v-2.29Zm2.006,15.724h-7.4l-.966-9.694a1.67,1.67,0,0,1,1.667-1.621h6a1.669,1.669,0,0,1,1.666,1.621Zm0,0"/><path class="a" d="M241.792,185.248a1.059,1.059,0,0,0-1.438-.42.634.634,0,0,1-.719-.078,2.753,2.753,0,0,0-2.752-.517l-1.791.65a.353.353,0,0,1-.346-.12l-.235-.254a2.459,2.459,0,0,0-2.55-.7l-2.092.651a1.059,1.059,0,0,0,.629,2.023l2.092-.651a.351.351,0,0,1,.367.114l.235.254a2.465,2.465,0,0,0,2.53.7l.056-.019,1.828-.663a.628.628,0,0,1,.631.118,2.76,2.76,0,0,0,3.136.343,1.059,1.059,0,0,0,.419-1.438Zm0,0"/><path class="a" d="M244.943,185.592a1.059,1.059,0,1,1-1.059-1.059,1.06,1.06,0,0,1,1.059,1.059Zm0,0"/></g></svg>