<svg xmlns="http://www.w3.org/2000/svg" width="52.371" height="54.243" viewBox="0 0 52.371 54.243"><defs><style>.a{fill:#21409a;}</style></defs><g transform="translate(-223.59 -217.959)"><path class="a" d="M232.976,261.045a1.06,1.06,0,1,1-1.059-1.059,1.06,1.06,0,0,1,1.059,1.059Zm0,0"/><path class="a" d="M273.549,248.412a1.06,1.06,0,1,1-1.06-1.06,1.06,1.06,0,0,1,1.06,1.06Zm0,0"/><path class="a" d="M260.226,240.456H258.6a.934.934,0,0,1-.932-.933v-.946a.934.934,0,0,1,.932-.932h1.8a.758.758,0,0,1,.757.757,1.06,1.06,0,0,0,2.119,0,2.88,2.88,0,0,0-2.805-2.875v-.909a1.059,1.059,0,0,0-2.119,0v.919a3.055,3.055,0,0,0-2.806,3.04v.946a3.054,3.054,0,0,0,3.052,3.051h1.626a.935.935,0,0,1,.933.933v.946a.934.934,0,0,1-.933.933h-1.8a.758.758,0,0,1-.757-.757,1.059,1.059,0,1,0-2.119,0,2.879,2.879,0,0,0,2.806,2.874v.909a1.059,1.059,0,1,0,2.119,0v-.918a3.055,3.055,0,0,0,2.805-3.041v-.946a3.054,3.054,0,0,0-3.052-3.051Zm0,0"/><path class="a" d="M275.615,253.875a4.04,4.04,0,0,0-5.329-2.064l-.015.007L263.6,254.9a1.06,1.06,0,0,0,.888,1.924l6.665-3.073a1.922,1.922,0,0,1,1.545,3.519l-13.656,6.029a7.878,7.878,0,0,1-6.707-.152l-5-2.483a10,10,0,0,0-8.505-.193l-.064.028L235.06,252.1l5.152-2.275a10.281,10.281,0,0,1,7.735-.247L258,253.273a1.774,1.774,0,0,1-1.18,3.345l-7.773-2.629a1.059,1.059,0,1,0-.679,2.007l7.774,2.629a3.861,3.861,0,0,0,1.241.2,3.892,3.892,0,0,0,1.348-7.546l-10.053-3.692a12.5,12.5,0,0,0-2.061-.563v-5.857A10.484,10.484,0,0,1,257.088,230.7h3.87a10.484,10.484,0,0,1,10.472,10.472v2.762a1.06,1.06,0,0,0,2.119,0v-2.762a12.61,12.61,0,0,0-10.171-12.356v-3.192l2.676-4.579a1.06,1.06,0,0,0-.476-1.5l-3.283-1.492a1.063,1.063,0,0,0-.8-.032l-2.436.877-2.161-.864a1.063,1.063,0,0,0-.775-.005l-3.435,1.326a1.058,1.058,0,0,0-.545,1.5l2.635,4.753v3.183A12.612,12.612,0,0,0,244.5,241.172v5.653a12.433,12.433,0,0,0-5.141,1.064l-5.19,2.292a2.623,2.623,0,0,0-3.237-.941l-6.705,2.938a1.06,1.06,0,0,0-.634.971v17.994a1.059,1.059,0,0,0,1.059,1.059,1.048,1.048,0,0,0,.478-.114l13.017-6.576a2.627,2.627,0,0,0,1.449-3.067l.091-.04a7.874,7.874,0,0,1,6.707.152l5,2.483a9.994,9.994,0,0,0,8.5.193l13.656-6.03a4.041,4.041,0,0,0,2.065-5.328Zm-14.356-25.294H256.9V226.4h4.359Zm-6.671-7.686,1.913-.738,2.147.859a1.062,1.062,0,0,0,.753.013l2.409-.867,1.823.827-1.923,3.289h-5.246ZM237.26,263.587l-.049.023-11.5,5.811v-4.294l2.978-1.462a1.059,1.059,0,1,0-.934-1.9l-2.044,1v-8.926l6.073-2.661a.505.505,0,0,1,.669.259l.242.549h0l4.825,10.928a.508.508,0,0,1-.259.669Zm0,0"/></g></svg>